<svg width="150" height="150" viewBox="0 0 150 150" fill="none" xmlns="http://www.w3.org/2000/svg">
<path fill-rule="evenodd" clip-rule="evenodd" d="M33.9721 48.762L38.2141 48.072L34.0081 47.466L34.6261 46.008L33.4441 46.794L32.7781 42.678L32.1721 46.89L30.8761 46.032L31.4941 47.496L27.2881 48.18L31.4521 48.78L30.8401 50.232L32.0761 49.41L32.7481 53.568L33.3481 49.392L34.5841 50.214L33.9721 48.762ZM50.0881 30.576L54.3301 29.886L50.1241 29.28L50.7421 27.822L49.5601 28.608L48.8941 24.492L48.2881 28.704L46.9921 27.84L47.6101 29.304L43.4041 29.988L47.5681 30.588L46.9501 32.046L48.1861 31.224L48.8581 35.382L49.4581 31.206L50.6941 32.028L50.0881 30.576ZM62.7541 12.702L66.9961 12.012L62.7901 11.406L63.4081 9.94798L62.2261 10.734L61.5601 6.61798L60.9541 10.83L59.6581 9.97198L60.2761 11.436L56.0701 12.12L60.2341 12.72L59.6161 14.178L60.8521 13.356L61.5241 17.514L62.1241 13.338L63.3601 14.16L62.7541 12.702ZM89.2261 12.702L93.4681 12.012L89.2621 11.406L89.8801 9.94798L88.6981 10.734L88.0321 6.61798L87.4261 10.83L86.1301 9.97198L86.7481 11.436L82.5421 12.12L86.7061 12.72L86.0881 14.178L87.3241 13.356L87.9961 17.514L88.5961 13.338L89.8321 14.16L89.2261 12.702ZM102.12 30.576L106.362 29.886L102.156 29.28L102.774 27.822L101.598 28.608L100.926 24.492L100.32 28.704L99.0241 27.846L99.6421 29.31L95.4361 29.994L99.6001 30.594L98.9821 32.052L100.218 31.23L100.89 35.388L101.49 31.212L102.726 32.034L102.12 30.576ZM118.464 48.762L122.706 48.072L118.494 47.466L119.112 46.008L117.93 46.794L117.264 42.678L116.658 46.89L115.362 46.032L115.98 47.496L111.774 48.18L115.938 48.78L115.32 50.238L116.556 49.416L117.228 53.574L117.828 49.398L119.064 50.22L118.464 48.762ZM74.6581 32.784C74.7541 32.736 74.8681 32.7 74.9761 32.676C75.0301 33.294 75.1261 33.834 75.2461 34.164C75.2821 34.026 75.3181 33.894 75.3541 33.762C75.3841 33.876 75.4141 33.996 75.4501 34.116C75.5581 33.822 75.6421 33.354 75.7021 32.808C75.8161 34.974 75.9961 37.128 76.1821 39.282H76.2421V31.068C76.4341 30.606 76.6561 30.144 76.9321 29.652C77.8261 28.038 79.0681 26.556 79.8841 24.906C80.6221 23.412 81.0421 22.224 81.1921 20.586C81.2761 19.692 81.4681 16.578 82.8601 16.674V16.584C82.5841 16.524 82.2961 16.566 82.0501 16.698C81.0301 17.286 80.7241 19.41 80.5441 20.466C80.2561 22.17 79.3921 23.376 78.5101 24.816C77.6701 26.19 76.1341 27.18 75.3661 28.536V28.53C74.6101 27.15 73.0381 26.148 72.1921 24.762C71.3101 23.316 70.4521 22.116 70.1581 20.412C69.9781 19.356 69.6721 17.226 68.6521 16.644C68.4061 16.512 68.1181 16.47 67.8421 16.53V16.62C69.2341 16.524 69.4261 19.638 69.5101 20.532C69.6601 22.17 70.0801 23.358 70.8241 24.852C71.6401 26.496 72.8761 27.978 73.7761 29.598C73.9921 29.982 74.1781 30.354 74.3401 30.72C74.4661 32.634 74.4361 39.276 74.4361 39.276H74.4661C74.4781 37.23 74.4901 35.184 74.4901 33.132L74.6581 32.784ZM73.8001 38.874C72.9841 37.998 72.1921 36.942 71.3821 36.102C69.4081 34.056 65.2801 33.426 63.8281 33.096C62.3041 32.748 61.1041 31.062 62.6581 29.556C63.6841 28.56 65.5261 29.178 65.5021 30.558C65.6161 30.564 65.2081 31.884 65.8261 30.564C65.9161 29.862 65.4061 29.274 64.8661 28.872C64.0561 28.266 64.0141 28.53 63.1561 28.746C62.0581 29.022 61.5001 28.656 60.8461 27.792C59.9821 26.646 59.7541 25.638 58.3801 24.954C57.0901 24.312 55.7461 24.372 54.3421 24.342C55.1341 24.882 58.3801 24.57 59.7841 26.688C60.1201 27.198 60.4141 27.828 60.7321 28.32C61.4161 29.376 61.2481 31.068 61.6741 32.478C62.1421 34.02 63.8161 34.11 65.2261 34.38C67.0921 34.74 69.3721 35.37 70.6021 36.78C71.3821 37.674 71.9701 38.61 72.5521 39.654C73.0801 40.602 73.5541 42.708 74.4121 43.53C74.4241 42.258 74.4361 40.986 74.4421 39.714C74.2321 39.414 74.0161 39.108 73.8001 38.874ZM78.2641 39.648C78.8401 38.61 79.4341 37.668 80.2141 36.774C81.4441 35.37 83.7241 34.734 85.5901 34.374C87.0061 34.104 88.6741 34.014 89.1421 32.472C89.5741 31.062 89.4061 29.37 90.0841 28.314C90.4081 27.816 90.6961 27.186 91.0321 26.682C92.4421 24.564 95.6821 24.876 96.4741 24.336C95.0761 24.366 93.7261 24.306 92.4361 24.948C91.0621 25.632 90.8341 26.64 89.9701 27.786C89.3221 28.65 88.7641 29.01 87.6601 28.74C86.7961 28.524 86.7541 28.26 85.9501 28.866C85.4161 29.268 84.9001 29.856 84.9901 30.558C85.6081 31.878 85.2001 30.564 85.3141 30.552C85.2901 29.178 87.1321 28.554 88.1581 29.55C89.7121 31.056 88.5121 32.748 86.9881 33.09C85.5361 33.42 81.4081 34.05 79.4341 36.096C78.6241 36.936 77.8321 37.992 77.0161 38.868C76.7581 39.15 76.4941 39.54 76.2181 39.882C76.3201 41.046 76.4221 42.216 76.5181 43.386C77.3101 42.492 77.7601 40.548 78.2641 39.648ZM47.4841 40.302H47.5381C47.5081 40.272 47.4901 40.236 47.4841 40.194V40.302ZM74.0401 56.034C73.5061 55.662 73.0561 55.272 72.6601 54.75C72.2941 54.264 71.9101 53.928 71.5741 53.43C71.4061 53.178 71.1901 52.98 71.0161 52.764C70.4401 52.044 69.7861 51.474 68.9221 51.114C67.5481 50.544 65.8201 50.652 64.3741 50.286C64.1521 50.232 63.9241 50.196 63.6901 50.178C63.6421 50.124 63.5881 50.064 63.5401 50.01L63.4801 49.95C61.5421 49.944 61.1941 46.536 61.7761 45.294C62.1301 44.538 62.5081 43.89 62.5621 43.008C62.6161 42.06 62.3461 41.07 63.4621 40.788C64.9741 40.404 66.6481 41.4 66.6241 43.014C67.2181 42.168 65.8321 40.656 65.0881 40.32C64.5481 40.074 63.7681 40.056 63.1741 40.128C62.5561 40.2 62.3761 40.5 61.9081 40.86C60.5701 39.774 60.4621 38.37 60.4621 36.756C60.4621 34.932 60.1441 33.792 58.1161 33.33C58.4521 34.212 59.6941 34.356 59.8621 35.49C60.0121 36.504 59.6821 37.518 59.6341 38.502C59.5801 39.528 59.9521 40.356 60.5401 41.154C61.0561 41.85 61.5541 42.636 61.4281 43.566C61.2121 45.24 60.0361 47.004 60.5701 48.822C60.7201 49.338 61.0861 49.968 61.4701 50.394C60.6661 50.49 59.8981 50.508 58.9681 50.214C58.1941 49.968 57.3541 49.566 56.6701 49.134C55.4941 48.402 54.3061 48.054 53.6761 46.722C52.7281 44.706 52.3081 42.576 50.4241 41.214C49.6741 40.668 48.4681 40.266 47.5321 40.308C47.7901 40.626 48.8881 41.004 49.2421 41.166C49.9981 41.514 50.5081 41.91 50.9941 42.606C52.0381 44.112 51.8761 45.858 52.6081 47.52C53.0161 48.45 53.7421 49.302 54.5041 49.98C54.8161 50.256 55.1581 50.592 55.4941 50.826C55.9561 51.144 56.4601 51.072 57.0061 51.228C58.1221 51.546 59.3161 51.666 60.5101 51.696C63.4381 51.768 67.3381 51.18 69.2701 53.928C70.0501 55.038 70.6321 56.082 71.7001 56.934C72.3241 57.432 72.9481 57.894 73.4941 58.482C73.6921 58.698 73.9321 59.208 74.2321 59.46C74.2441 58.374 74.2561 57.294 74.2741 56.214C74.2141 56.154 74.1361 56.1 74.0401 56.034ZM77.4661 58.476C78.0061 57.888 78.6361 57.426 79.2601 56.928C80.3341 56.07 80.9101 55.032 81.6901 53.922C83.6221 51.174 87.5221 51.762 90.4501 51.69C91.6501 51.66 92.8381 51.54 93.9541 51.222C94.5001 51.066 95.0041 51.138 95.4661 50.82C95.8021 50.592 96.1501 50.25 96.4561 49.974C97.2181 49.296 97.9501 48.438 98.3521 47.514C99.0841 45.852 98.9221 44.106 99.9661 42.6C100.452 41.898 100.962 41.508 101.718 41.16C102.066 40.998 103.17 40.626 103.428 40.302C102.486 40.26 101.286 40.662 100.536 41.208C98.6521 42.57 98.2321 44.7 97.2841 46.716C96.6541 48.048 95.4661 48.396 94.2901 49.128C93.6061 49.554 92.7661 49.962 91.9921 50.208C91.0621 50.502 90.2941 50.49 89.4901 50.388C89.8741 49.962 90.2401 49.332 90.3901 48.816C90.9181 46.998 89.7481 45.234 89.5321 43.56C89.4121 42.63 89.9101 41.844 90.4261 41.148C91.0141 40.35 91.3861 39.522 91.3321 38.496C91.2841 37.512 90.9481 36.498 91.0981 35.484C91.2661 34.35 92.5081 34.206 92.8441 33.324C90.8221 33.792 90.4981 34.926 90.4981 36.75C90.4981 38.364 90.3841 39.774 89.0521 40.854C88.5841 40.494 88.4041 40.194 87.7861 40.122C87.1861 40.056 86.4061 40.074 85.8721 40.314C85.1281 40.65 83.7421 42.162 84.3361 43.008C84.3121 41.388 85.9861 40.398 87.4981 40.782C88.6141 41.064 88.3441 42.054 88.3981 43.002C88.4521 43.884 88.8301 44.532 89.1841 45.288C89.7661 46.53 89.4181 49.938 87.4801 49.944L87.4201 50.004C87.3661 50.058 87.3181 50.112 87.2701 50.172C87.0421 50.19 86.8141 50.226 86.5861 50.28C85.1401 50.64 83.4121 50.532 82.0381 51.108C81.1741 51.468 80.5201 52.038 79.9441 52.758C79.7701 52.974 79.5541 53.172 79.3861 53.424C79.0501 53.922 78.6661 54.258 78.3001 54.744C77.9041 55.266 77.4541 55.656 76.9201 56.028H76.9141C76.9021 57.12 76.8841 58.212 76.8601 59.304C77.1001 59.04 77.2981 58.656 77.4661 58.476ZM103.482 40.194C103.476 40.236 103.452 40.272 103.428 40.302H103.482V40.194Z" fill="black"/>
<path fill-rule="evenodd" clip-rule="evenodd" d="M72.864 45.972C72.042 45.024 70.518 44.118 69.246 44.472C67.932 44.838 67.248 46.488 67.554 47.778C67.734 48.528 68.664 49.77 69.42 49.92C69.228 49.554 68.652 49.452 68.43 48.972C68.238 48.564 68.184 47.958 68.148 47.502C68.046 46.218 68.688 45.408 70.038 45.612C71.106 45.774 72.426 46.602 72.918 47.586C73.452 48.66 73.476 49.92 74.232 50.874C74.268 50.922 74.304 50.964 74.34 51.006L74.37 48.654C73.776 48.024 73.278 46.452 72.864 45.972ZM77.802 47.592C78.294 46.608 79.614 45.78 80.682 45.618C82.032 45.414 82.674 46.218 82.572 47.508C82.536 47.964 82.482 48.57 82.29 48.978C82.068 49.458 81.492 49.56 81.3 49.926C82.062 49.776 82.986 48.534 83.166 47.784C83.472 46.494 82.794 44.85 81.474 44.478C80.196 44.118 78.672 45.03 77.856 45.978C77.562 46.32 77.22 47.22 76.836 47.934C76.872 48.672 76.902 49.416 76.92 50.16C77.286 49.344 77.394 48.414 77.802 47.592ZM77.304 72.648C77.394 72.51 77.484 72.372 77.58 72.252C78.18 71.454 78.804 70.92 79.704 70.488C80.688 70.014 81.504 69.336 82.662 69.45C85.698 69.756 84.114 72.888 83.088 74.406C82.392 75.432 81.726 76.236 82.386 77.52C82.764 78.264 84.144 79.356 85.008 78.762C82.338 78.21 82.794 75.516 84.258 73.842C84.888 73.122 85.722 72.204 85.638 71.172C85.602 70.74 85.464 70.212 85.242 69.72C86.322 70.104 87.312 70.734 88.176 71.598C89.442 72.864 90.402 74.622 90.714 76.368C90.93 77.562 91.434 79.65 90.624 80.712C89.052 82.782 86.04 80.064 87.822 78.276C87.576 78.324 87.294 78.762 87.042 78.78C86.184 80.016 87.414 81.516 88.542 82.044C89.22 82.362 90.408 82.308 90.978 81.768C91.326 81.438 91.278 80.718 91.638 80.538C91.71 81.216 92.412 82.206 92.868 82.746C93.888 83.958 94.824 84.222 96.42 84.204C97.344 84.192 98.232 84.108 98.55 83.148C98.688 82.734 98.844 82.008 98.082 81.03C98.418 82.416 97.632 83.376 95.874 83.166C92.718 82.782 92.04 79.416 91.83 76.848C91.686 75.066 91.23 73.254 90.072 71.838C89.316 70.92 88.686 70.35 87.744 69.744C86.736 69.09 85.776 68.292 84.546 68.154C84.51 68.148 84.474 68.148 84.438 68.148C83.712 67.83 83.022 67.794 82.176 67.878C81.09 67.986 79.806 67.752 78.762 68.232C78.024 68.574 77.622 69.24 77.214 69.9C77.28 70.8 77.322 71.718 77.304 72.648Z" fill="black"/>
<path fill-rule="evenodd" clip-rule="evenodd" d="M116.292 54.768C113.256 53.574 108.99 52.482 106.044 54.468C103.374 56.268 102.708 59.484 99.6599 60.816C98.6819 61.242 97.6559 61.446 96.5939 61.5C96.5219 61.05 96.8279 60.594 97.0619 60.156C97.8239 58.746 97.9739 57.162 98.0459 55.572C98.1179 53.946 97.7879 51.924 98.6999 50.496C99.3719 49.446 101.214 49.062 102.336 49.638C103.47 50.22 103.224 51.288 102.96 52.128C104.172 51.486 103.176 48.846 101.982 48.654C101.214 48.528 99.9239 48.636 99.2099 49.05C98.7719 49.302 98.3999 49.65 98.1059 50.064C97.2659 51.234 97.5359 52.416 97.3499 53.766C96.8639 53.376 96.6059 53.064 95.8919 53.094C95.2259 53.124 94.6679 53.604 94.3559 54.162C93.9299 54.936 93.7919 57.078 95.1959 56.532C93.5999 56.418 94.9919 52.542 96.5519 54.108C96.8939 54.45 96.9299 54.888 96.9599 55.338C97.0139 56.436 96.9359 57.54 96.7199 58.62C96.5099 59.64 95.8199 60.696 95.0279 61.488C92.0579 61.296 88.9559 60.282 86.2079 60.042C85.9739 60.024 85.7339 60.006 85.4999 59.994C85.5419 59.934 85.5899 59.868 85.6319 59.802C86.2019 58.932 86.1419 57.966 86.9099 57.246C87.5999 56.604 88.1399 55.962 89.2139 56.076C90.4079 56.208 90.4139 57.126 90.6479 58.044C91.1519 57.714 90.7319 56.772 90.5279 56.37C90.0299 55.404 89.6219 55.332 88.4339 55.452C87.6839 55.524 87.0719 55.824 86.5739 56.4C86.1899 56.844 86.0999 57.372 85.7279 57.804C85.3619 57.048 84.9839 56.364 83.9399 56.568C83.5499 56.646 83.0339 56.862 82.9079 57.258C82.7939 57.624 83.0039 58.092 83.3939 58.11C82.9319 57.678 83.1719 56.982 83.8079 56.922C84.4799 56.856 84.8279 57.588 84.8819 58.164C84.9659 59.094 84.4199 59.766 83.5559 60.012C81.2159 60.168 78.8939 60.882 77.4059 62.64C77.1419 62.952 76.9199 63.252 76.7279 63.552C76.7219 63.09 76.7279 62.628 76.7519 62.16C76.7939 61.212 76.8299 60.258 76.8539 59.304C76.8839 58.212 76.8959 57.12 76.9079 56.028C76.9199 54.672 76.9259 53.316 76.9259 51.966C76.9199 50.616 76.8839 49.266 76.8179 47.922C76.7399 46.404 76.6379 44.892 76.5119 43.38C76.4159 42.21 76.3139 41.046 76.2119 39.876L76.1579 39.27C75.9719 37.116 75.7919 34.962 75.6779 32.796C75.6179 33.342 75.5339 33.81 75.4259 34.104C75.3959 33.984 75.3659 33.87 75.3299 33.75C75.2939 33.882 75.2579 34.014 75.2219 34.152C75.1019 33.822 75.0119 33.288 74.9519 32.664C74.8439 32.688 74.7359 32.724 74.6339 32.772L74.4599 33.126C74.4599 35.178 74.4479 37.224 74.4359 39.27L74.4299 39.702C74.4239 40.974 74.4119 42.246 74.3999 43.518C74.3759 46.014 74.3459 48.51 74.3159 51.006L74.2499 56.196C74.2379 57.276 74.2199 58.362 74.2079 59.442C74.1899 60.942 74.1719 62.454 74.1599 63.96C73.9919 63.72 73.8179 63.486 73.6259 63.258C72.3119 61.704 70.3499 60.966 68.2919 60.708C67.5599 60.444 66.8159 60.216 66.0659 60.006C65.1959 59.766 64.6439 59.088 64.7279 58.158C64.7819 57.582 65.1299 56.856 65.8019 56.916C66.4439 56.976 66.6779 57.672 66.2159 58.104C66.6059 58.086 66.8219 57.618 66.7019 57.252C66.5759 56.856 66.0599 56.64 65.6699 56.562C64.6259 56.358 64.2419 57.036 63.8819 57.798C63.5099 57.372 63.4199 56.844 63.0359 56.394C62.5379 55.818 61.9259 55.524 61.1759 55.446C59.9939 55.326 59.5799 55.398 59.0879 56.364C58.8839 56.766 58.4579 57.702 58.9679 58.038C59.2019 57.12 59.2079 56.196 60.4019 56.07C61.4699 55.956 62.0099 56.598 62.7059 57.24C63.4799 57.96 63.4199 58.926 63.9839 59.796C64.2059 60.132 64.4459 60.426 64.7159 60.672C61.7759 60.948 58.4459 62.082 55.3019 62.13L55.3079 62.106C54.2399 61.314 53.1659 59.928 52.8959 58.608C52.6799 57.528 52.6019 56.424 52.6619 55.326C52.6859 54.876 52.7279 54.438 53.0699 54.096C54.6359 52.536 56.0219 56.406 54.4319 56.52C55.8419 57.066 55.7039 54.918 55.2719 54.15C54.9599 53.592 54.4019 53.112 53.7359 53.082C53.0219 53.046 52.7639 53.364 52.2779 53.754C52.0919 52.404 52.3559 51.216 51.5219 50.052C51.2339 49.638 50.8559 49.29 50.4179 49.038C49.7039 48.63 48.4139 48.516 47.6459 48.642C46.4519 48.84 45.4559 51.48 46.6679 52.116C46.3979 51.276 46.1519 50.208 47.2859 49.626C48.4079 49.05 50.2499 49.434 50.9219 50.484C51.8339 51.912 51.4979 53.934 51.5759 55.56C51.6479 57.15 51.8039 58.734 52.5599 60.144C52.8719 60.72 53.3039 61.314 52.8419 61.902C52.3439 61.794 51.8579 61.638 51.3839 61.434C48.3359 60.102 47.6699 56.886 44.9999 55.086C42.0539 53.094 37.7879 54.192 34.7519 55.386C33.7139 55.674 33.8099 55.764 35.0399 55.764H35.1899C35.9819 55.242 36.9899 55.092 37.8419 54.9C39.3119 54.558 41.2319 54.846 42.6299 55.212C44.7899 55.776 45.7739 57.978 47.0339 59.586C51.1379 64.848 57.8399 63.018 63.7259 62.766C63.2039 62.844 62.7059 62.982 62.2499 63.192C61.2659 63.648 60.3539 63.882 59.2979 64.08C58.2959 64.272 57.0899 64.368 56.2079 64.854C55.2299 65.4 54.3239 66.108 53.3699 66.678C52.4879 67.2 51.3839 67.734 50.5859 68.34C50.6099 68.298 50.6279 68.25 50.6399 68.202L50.5139 68.394C50.3879 68.49 50.2679 68.604 50.1659 68.724L50.1719 68.706C50.1659 68.718 50.1599 68.73 50.1539 68.736C50.0639 68.838 49.9799 68.946 49.9019 69.06C49.4399 69.408 48.8759 69.696 48.5399 69.792C47.5799 70.074 46.4699 70.098 45.6779 69.438C45.1079 68.964 44.4179 68.01 44.9279 67.278C45.4619 66.516 45.9599 67.554 45.5759 68.13C46.4039 67.746 46.1999 66.156 45.1139 66.39C44.1299 66.6 44.7479 68.22 43.5779 67.926C42.3359 67.614 41.2079 66.582 39.8159 67.128C39.1979 67.374 38.8439 68.04 39.0779 68.7C39.1919 69.012 39.5279 69.192 39.8519 69.33C40.0859 69.432 40.3379 69.456 40.5899 69.48C40.6679 68.988 38.5919 68.43 39.9779 67.854C40.9979 67.428 42.4259 68.01 43.1999 68.688C44.0759 69.462 44.4539 70.446 45.7199 70.746C46.4759 70.926 47.3519 70.908 48.1319 70.788C47.7779 71.118 47.4359 71.454 47.1239 71.868C46.4279 72.798 46.0439 73.806 45.2039 74.64C44.3279 75.498 43.2839 75.876 42.1019 76.2C40.8119 76.554 38.2859 77.148 37.9439 75.342C37.8059 74.61 38.4179 73.566 39.0599 74.484C39.1079 73.764 38.0459 73.746 37.6859 74.112C37.0859 74.724 37.2299 75.36 37.6319 76.032C37.9919 76.638 38.3639 77.064 39.0599 77.202C39.4859 77.286 40.5419 77.142 40.9019 77.46C40.8419 77.502 40.7939 77.556 40.7519 77.61C40.5179 77.928 40.1639 78.666 40.0619 79.08C39.7859 80.142 40.5059 81.42 41.3159 82.068C41.9939 82.608 44.0219 82.476 44.3099 81.564C44.5799 80.706 43.5959 79.824 42.7919 80.226C42.8159 80.274 42.8339 80.316 42.8519 80.37C43.4879 80.298 44.0939 80.556 43.6739 81.21C43.2959 81.792 42.6659 81.696 42.1259 81.384C41.4599 81 40.9919 80.688 40.9859 79.89C40.9739 78.852 41.1719 78.252 41.7239 77.55C42.7919 77.196 44.6699 76.302 45.2399 75.87C46.2899 75.084 47.2439 74.082 48.0299 73.062C48.1079 72.954 48.1859 72.846 48.2519 72.738C48.1019 73.866 48.6719 75 49.6079 75.648C50.4779 76.248 52.4879 76.176 53.3339 75.546C53.7839 75.21 54.1079 74.562 54.0659 73.992C54.0419 73.62 53.8379 72.768 53.3519 72.918C54.4739 74.076 53.2139 75.33 51.8579 75.3C50.8139 75.282 49.9199 74.64 49.5119 73.71C49.2299 73.074 49.0139 72.48 49.2719 71.814C49.6019 70.956 50.1299 70.278 50.8019 69.654C51.2399 69.246 51.5339 68.634 52.0439 68.304C52.6619 67.902 53.4119 67.83 54.0179 67.386C54.3599 67.134 54.7259 66.888 55.0919 66.66C55.7579 66.246 56.3339 66.126 57.1199 65.946C57.9419 65.76 58.6019 65.298 59.4119 65.142C60.6779 64.896 62.0039 64.872 63.2339 64.452C63.5999 64.326 63.9359 64.128 64.3199 64.068C66.5099 63.75 68.8919 63.954 71.1119 63.954L71.2619 63.858C72.4019 64.356 73.4039 65.04 74.1479 65.982C74.1359 67.434 74.1239 68.886 74.1179 70.338C74.1119 70.878 74.1119 71.424 74.1119 71.97L76.9799 72.732C76.8179 74.448 76.9679 76.476 77.1239 78.336C77.1599 76.572 77.2079 74.808 77.2739 73.038C77.2799 72.894 77.2799 72.756 77.2859 72.612C77.2979 71.694 77.2679 70.77 77.1959 69.852C77.0879 68.376 76.9199 66.918 76.8119 65.442C77.3519 64.734 78.0359 64.164 78.8159 63.708C78.7979 63.75 78.7859 63.792 78.7739 63.834L78.9419 63.948C81.1619 63.948 83.5439 63.738 85.7339 64.062C86.1179 64.116 86.4539 64.32 86.8199 64.446C88.0499 64.872 89.3759 64.89 90.6419 65.136C91.4519 65.292 92.1119 65.754 92.9339 65.94C93.7199 66.12 94.2959 66.24 94.9619 66.654C95.3279 66.882 95.6939 67.128 96.0359 67.38C96.6419 67.824 97.3859 67.896 98.0099 68.298C98.5139 68.628 98.8079 69.24 99.2459 69.648C99.9179 70.272 100.452 70.95 100.776 71.808C101.034 72.474 100.818 73.062 100.536 73.704C100.122 74.64 99.2279 75.276 98.1899 75.294C96.8339 75.318 95.5739 74.064 96.6959 72.912C96.2099 72.762 96.0059 73.614 95.9819 73.986C95.9399 74.556 96.2639 75.204 96.7139 75.54C97.5599 76.164 99.5699 76.236 100.44 75.642C101.376 74.994 101.946 73.86 101.796 72.732C101.862 72.84 101.94 72.948 102.018 73.056C102.81 74.076 103.764 75.078 104.814 75.864C105.39 76.296 107.268 77.19 108.336 77.544C108.888 78.246 109.086 78.846 109.074 79.884C109.068 80.682 108.6 80.994 107.934 81.378C107.394 81.69 106.758 81.792 106.386 81.204C105.966 80.55 106.566 80.292 107.208 80.364C107.226 80.31 107.244 80.262 107.268 80.22C106.47 79.818 105.486 80.7 105.75 81.558C106.032 82.476 108.066 82.608 108.744 82.062C109.56 81.414 110.274 80.136 109.998 79.074C109.89 78.666 109.536 77.922 109.308 77.604C109.266 77.55 109.212 77.496 109.158 77.454C109.518 77.136 110.574 77.28 111 77.196C111.696 77.058 112.068 76.632 112.428 76.026C112.824 75.354 112.968 74.718 112.374 74.106C112.014 73.74 110.952 73.764 111 74.478C111.648 73.554 112.254 74.598 112.122 75.336C111.78 77.142 109.254 76.548 107.964 76.194C106.782 75.87 105.732 75.492 104.862 74.634C104.022 73.8 103.638 72.798 102.942 71.862C102.63 71.448 102.288 71.106 101.934 70.782C102.714 70.896 103.59 70.92 104.346 70.74C105.618 70.44 105.99 69.456 106.866 68.682C107.64 67.998 109.068 67.416 110.088 67.848C111.468 68.424 109.398 68.982 109.476 69.474C109.734 69.45 109.98 69.426 110.214 69.324C110.538 69.186 110.88 69.006 110.988 68.694C111.228 68.028 110.874 67.362 110.25 67.122C108.852 66.576 107.73 67.608 106.488 67.92C105.318 68.214 105.936 66.594 104.952 66.384C103.866 66.15 103.662 67.74 104.49 68.124C104.106 67.548 104.598 66.504 105.132 67.272C105.642 68.004 104.952 68.958 104.382 69.432C103.59 70.086 102.48 70.062 101.52 69.786C101.184 69.69 100.62 69.402 100.158 69.054C100.08 68.94 99.9959 68.832 99.9059 68.724C99.8999 68.712 99.8879 68.7 99.8879 68.694L99.8939 68.712C99.7979 68.598 99.6899 68.496 99.5699 68.406L99.5459 68.388L99.4199 68.196C99.4319 68.244 99.4559 68.286 99.4739 68.334C98.6759 67.728 97.5719 67.194 96.6899 66.672C95.7359 66.102 94.8299 65.394 93.8579 64.848C92.9819 64.356 91.7699 64.26 90.7679 64.074C89.7119 63.876 88.7999 63.642 87.8159 63.186C86.0459 62.364 83.6699 62.724 81.7259 62.724C81.5819 62.724 81.4079 62.724 81.2159 62.73C82.4999 62.364 83.8799 62.184 85.2359 62.124C88.1219 61.992 91.3319 62.55 94.4039 62.634C94.7939 62.766 95.2739 62.754 95.7239 62.634C98.8799 62.55 101.808 61.764 104.004 58.956C105.264 57.342 106.242 55.146 108.408 54.582C109.806 54.216 111.726 53.928 113.196 54.27C114.048 54.468 115.062 54.612 115.854 55.134H116.004C117.24 55.146 117.33 55.056 116.292 54.768Z" fill="black"/>
<path fill-rule="evenodd" clip-rule="evenodd" d="M77.0041 72.762L74.1361 72C74.1361 71.454 74.1361 70.914 74.1421 70.368C73.5961 69.576 73.2001 68.646 72.2821 68.22C71.2441 67.74 69.9541 67.974 68.8681 67.866C68.0161 67.782 67.3321 67.818 66.6061 68.136C66.5701 68.142 66.5341 68.136 66.4981 68.142C65.2681 68.28 64.3081 69.078 63.3001 69.732C62.3581 70.338 61.7281 70.908 60.9781 71.826C59.8201 73.242 59.3641 75.054 59.2201 76.836C59.0101 79.404 58.3321 82.77 55.1761 83.154C53.4181 83.364 52.6321 82.404 52.9681 81.018C52.2061 82.002 52.3621 82.722 52.5001 83.136C52.8181 84.09 53.7061 84.18 54.6301 84.192C56.2261 84.21 57.1621 83.946 58.1821 82.734C58.6381 82.188 59.3461 81.204 59.4121 80.526C59.7721 80.712 59.7241 81.426 60.0721 81.756C60.6421 82.296 61.8301 82.35 62.5081 82.032C63.6361 81.504 64.8661 80.004 64.0081 78.768C63.7501 78.75 63.4741 78.306 63.2281 78.264C65.0101 80.052 61.9981 82.77 60.4261 80.7C59.6161 79.632 60.1201 77.55 60.3361 76.356C60.6481 74.604 61.6141 72.846 62.8741 71.586C63.6361 70.818 64.5481 70.212 65.5501 69.81C65.2861 70.344 65.1181 70.95 65.0761 71.43C64.9921 72.462 65.8261 73.38 66.4561 74.1C67.9201 75.774 68.3701 78.474 65.7061 79.02C66.5701 79.614 67.9501 78.522 68.3281 77.778C68.9821 76.5 68.3221 75.696 67.6261 74.664C66.6001 73.146 65.0161 70.014 68.0521 69.708C69.2041 69.594 70.0261 70.272 71.0101 70.746C71.9101 71.184 72.5341 71.712 73.1341 72.51C73.3021 72.738 73.4701 72.99 73.6261 73.26C74.0701 75.192 74.0761 77.088 74.0761 79.266C74.0761 84.612 73.5121 90.03 73.0561 95.34C72.4261 102.672 72.5881 110.154 72.0301 117.486C71.9281 118.734 71.8681 119.982 71.8501 121.236C71.5981 121.836 71.3221 122.424 71.0341 123.006C69.8101 125.49 68.9761 128.406 66.5581 130.026C64.8601 131.16 62.7121 131.124 61.0561 132.348C60.5341 132.732 60.1141 133.32 59.5741 133.668C58.6501 134.262 57.3361 134.688 56.3401 135.078C54.1681 135.936 47.6101 136.656 49.1341 140.31C49.5421 139.932 49.5361 139.356 49.8601 138.93C50.4241 138.192 51.3361 137.976 52.1701 137.892C53.0401 137.808 53.9641 137.82 54.8041 137.616C55.5241 137.442 56.1301 136.986 56.8441 136.8C60.3481 135.864 59.0881 139.14 58.6561 140.958C58.2241 141.024 57.7141 142.326 57.6241 142.764C57.3361 142.938 56.9821 143.178 56.7421 143.37C58.5961 143.142 59.4721 141.6 60.6601 140.244C61.4221 139.38 61.6201 137.958 62.6041 137.232C63.8641 136.296 66.6961 136.014 68.2681 136.212C69.1801 137.832 69.6001 138.762 68.1901 140.334C69.3661 140.052 69.6361 139.668 70.1821 138.528C70.6741 137.496 71.1721 136.578 72.3301 136.17C73.8421 135.636 74.7481 136.062 75.6781 137.208C76.1881 137.838 78.0241 139.5 77.7181 140.328C78.3121 140.646 78.6661 141.246 79.3261 141.492C80.7361 142.014 81.6001 141.786 82.9321 141.498C81.6001 141.738 80.2921 141.222 79.7161 139.848C79.1941 138.612 79.0981 136.974 80.3161 136.194C81.5041 135.432 83.9161 135.228 84.8881 136.602C85.2901 137.172 85.1401 138.09 84.7021 138.606C85.2421 138.786 85.3561 140.826 85.9081 140.658C86.0641 139.644 87.6601 136.872 88.6561 136.806C89.8621 136.728 90.8161 137.97 91.3801 138.96C92.2441 140.478 91.9141 142.914 94.0621 143.172C93.1681 142.968 93.2281 141.114 93.1981 140.442C93.0541 137.376 94.5661 137.13 97.3441 137.112C99.1321 137.1 99.9421 136.782 101.004 138.156C101.196 138.408 101.244 138.672 101.532 138.96C102.36 139.794 103.824 140.01 104.928 140.154C103.932 139.992 102.726 137.574 102.114 136.782C101.112 135.468 97.5721 135.606 95.7121 133.506C94.6621 132.318 94.4941 132.666 92.8021 132.576C91.8781 132.528 91.2901 132.516 90.9301 132.522C90.7441 132.402 90.2581 132.198 89.2261 131.868C87.8701 131.436 87.7021 131.538 86.6881 130.656C86.1841 130.218 85.8241 129.816 85.3921 129.312C84.9121 128.748 84.4861 128.118 83.9701 127.584C83.4901 127.086 82.6561 126.708 82.2661 126.168C81.5941 125.232 81.2761 123.366 80.8501 122.214C80.4001 120.99 80.0101 119.814 79.8181 118.548C79.7281 117.972 79.5541 117.438 79.3501 116.922C79.2361 114.642 79.1161 112.356 78.9421 110.106C78.7321 107.424 78.2521 104.592 78.4081 101.97C78.6661 97.68 77.5561 93.762 77.5081 89.46C77.4721 86.172 77.5261 82.896 77.2501 79.638C77.2141 79.224 77.1781 78.798 77.1421 78.36C76.9921 76.506 76.8421 74.472 77.0041 72.762Z" fill="black"/>
<path fill-rule="evenodd" clip-rule="evenodd" d="M94.0559 143.178C94.1279 143.196 94.2059 143.202 94.2779 143.196C94.2059 143.196 94.1279 143.19 94.0559 143.178Z" fill="black"/>
</svg>
