<svg width="836" height="836" viewBox="0 0 836 836" fill="none" xmlns="http://www.w3.org/2000/svg">
<path fill-rule="evenodd" clip-rule="evenodd" d="M189.337 271.767L212.979 267.921L189.538 264.544L192.982 256.418L186.395 260.799L182.683 237.859L179.305 261.334L172.082 256.552L175.527 264.711L152.085 268.523L175.292 271.867L171.882 279.96L178.77 275.378L182.516 298.552L185.86 275.278L192.748 279.859L189.337 271.767ZM279.157 170.41L302.799 166.565L279.358 163.187L282.802 155.061L276.214 159.442L272.503 136.502L269.125 159.977L261.902 155.162L265.346 163.321L241.905 167.133L265.112 170.477L261.668 178.603L268.557 174.022L272.302 197.196L275.646 173.921L282.535 178.503L279.157 170.41ZM349.749 70.7924L373.391 66.9468L349.95 63.5694L353.394 55.4435L346.806 59.8241L343.094 36.8843L339.717 60.3592L332.494 55.5772L335.938 63.7366L312.497 67.5488L335.704 70.8928L332.26 79.0187L339.148 74.4374L342.894 97.6113L346.238 74.3371L353.126 78.9184L349.749 70.7924ZM497.286 70.7924L520.928 66.9468L497.487 63.5694L500.931 55.4435L494.344 59.8241L490.632 36.8843L487.254 60.3592L480.031 55.5772L483.476 63.7366L460.034 67.5488L483.241 70.8928L479.797 79.0187L486.686 74.4374L490.431 97.6113L493.775 74.3371L500.664 78.9184L497.286 70.7924ZM569.149 170.41L592.791 166.565L569.349 163.187L572.794 155.061L566.24 159.442L562.494 136.502L559.117 159.977L551.894 155.195L555.338 163.354L531.897 167.167L555.104 170.511L551.66 178.636L558.548 174.055L562.294 197.229L565.638 173.955L572.526 178.536L569.149 170.41ZM660.239 271.767L683.881 267.921L660.407 264.544L663.851 256.418L657.263 260.799L653.551 237.859L650.174 261.334L642.951 256.552L646.395 264.711L622.954 268.523L646.161 271.867L642.717 279.993L649.605 275.412L653.351 298.586L656.695 275.311L663.583 279.893L660.239 271.767ZM416.094 182.716C416.629 182.449 417.264 182.248 417.866 182.114C418.167 185.559 418.702 188.568 419.371 190.407C419.572 189.638 419.772 188.903 419.973 188.167C420.14 188.802 420.307 189.471 420.508 190.14C421.11 188.501 421.578 185.893 421.912 182.85C422.548 194.922 423.551 206.927 424.588 218.932H424.922V173.152C425.992 170.577 427.229 168.003 428.768 165.26C433.75 156.265 440.672 148.005 445.22 138.809C449.333 130.483 451.674 123.862 452.51 114.733C452.978 109.75 454.048 92.3947 461.806 92.9297V92.4281C460.268 92.0937 458.663 92.3278 457.292 93.0635C451.607 96.3406 449.902 108.178 448.899 114.064C447.293 123.561 442.478 130.282 437.562 138.308C432.881 145.966 424.32 151.483 420.04 159.041V159.007C415.826 151.316 407.065 145.731 402.35 138.007C397.434 129.948 392.652 123.26 391.014 113.763C390.011 107.877 388.305 96.0062 382.62 92.7625C381.249 92.0268 379.644 91.7928 378.106 92.1272V92.6288C385.864 92.0937 386.934 109.449 387.402 114.432C388.238 123.561 390.579 130.182 394.726 138.508C399.274 147.671 406.162 155.931 411.178 164.959C412.382 167.1 413.419 169.173 414.322 171.213C415.024 181.88 414.857 218.898 414.857 218.898H415.024C415.091 207.495 415.158 196.092 415.158 184.656L416.094 182.716ZM411.312 216.658C406.764 211.775 402.35 205.89 397.836 201.208C386.834 189.805 363.827 186.294 355.735 184.455C347.241 182.515 340.553 173.119 349.214 164.725C354.932 159.174 365.198 162.619 365.064 170.31C365.7 170.343 363.426 177.7 366.87 170.343C367.372 166.431 364.529 163.154 361.52 160.913C357.005 157.536 356.771 159.007 351.989 160.211C345.87 161.749 342.76 159.709 339.115 154.894C334.3 148.507 333.029 142.889 325.371 139.077C318.182 135.499 310.691 135.833 302.866 135.666C307.28 138.676 325.371 136.937 333.196 148.741C335.069 151.583 336.707 155.095 338.48 157.837C342.292 163.722 341.356 173.152 343.73 181.011C346.338 189.605 355.668 190.106 363.526 191.611C373.926 193.618 386.633 197.129 393.488 204.987C397.836 209.97 401.113 215.186 404.356 221.005C407.299 226.288 409.941 238.026 414.723 242.607C414.79 235.518 414.857 228.429 414.89 221.339C413.72 219.667 412.516 217.962 411.312 216.658ZM436.191 220.971C439.402 215.186 442.712 209.936 447.059 204.954C453.915 197.129 466.622 193.584 477.022 191.578C484.913 190.073 494.21 189.571 496.818 180.977C499.226 173.119 498.289 163.689 502.068 157.803C503.874 155.028 505.479 151.517 507.352 148.708C515.21 136.903 533.268 138.642 537.682 135.633C529.89 135.8 522.366 135.465 515.177 139.043C507.519 142.856 506.248 148.474 501.433 154.861C497.821 159.676 494.711 161.682 488.558 160.178C483.743 158.974 483.509 157.502 479.028 160.88C476.052 163.12 473.176 166.397 473.678 170.31C477.122 177.667 474.848 170.343 475.483 170.276C475.35 162.619 485.616 159.141 491.334 164.692C499.995 173.085 493.307 182.515 484.813 184.422C476.721 186.261 453.714 189.772 442.712 201.175C438.198 205.857 433.784 211.742 429.236 216.624C427.798 218.196 426.327 220.37 424.788 222.276C425.357 228.763 425.925 235.284 426.46 241.805C430.874 236.822 433.382 225.987 436.191 220.971ZM264.644 224.616H264.945C264.778 224.449 264.678 224.249 264.644 224.015V224.616ZM412.65 312.296C409.673 310.223 407.165 308.049 404.958 305.14C402.919 302.431 400.778 300.559 398.906 297.783C397.969 296.379 396.766 295.275 395.796 294.071C392.586 290.059 388.941 286.882 384.125 284.875C376.467 281.699 366.837 282.3 358.778 280.261C357.54 279.96 356.27 279.759 354.966 279.659C354.698 279.358 354.397 279.023 354.13 278.722L353.795 278.388C342.994 278.355 341.055 259.361 344.298 252.439C346.271 248.225 348.378 244.614 348.679 239.698C348.98 234.414 347.475 228.897 353.695 227.325C362.122 225.185 371.452 230.736 371.318 239.731C374.628 235.016 366.904 226.589 362.757 224.717C359.748 223.346 355.4 223.245 352.09 223.647C348.645 224.048 347.642 225.72 345.034 227.726C337.577 221.674 336.975 213.849 336.975 204.853C336.975 194.688 335.203 188.334 323.9 185.759C325.772 190.675 332.695 191.477 333.631 197.798C334.467 203.449 332.628 209.1 332.36 214.584C332.059 220.303 334.132 224.917 337.41 229.365C340.285 233.244 343.061 237.625 342.359 242.808C341.155 252.138 334.601 261.969 337.577 272.101C338.413 274.977 340.453 278.488 342.593 280.863C338.112 281.398 333.832 281.498 328.648 279.859C324.335 278.488 319.653 276.248 315.841 273.84C309.287 269.76 302.665 267.821 299.154 260.397C293.871 249.161 291.53 237.29 281.03 229.699C276.85 226.656 270.128 224.416 264.912 224.65C266.35 226.422 272.469 228.529 274.442 229.432C278.656 231.371 281.498 233.578 284.207 237.457C290.025 245.851 289.122 255.582 293.202 264.845C295.476 270.028 299.522 274.776 303.769 278.555C305.508 280.093 307.414 281.966 309.287 283.27C311.861 285.043 314.67 284.641 317.713 285.511C323.933 287.283 330.588 287.952 337.242 288.119C353.561 288.52 375.297 285.243 386.065 300.559C390.412 306.745 393.656 312.564 399.608 317.312C403.086 320.088 406.564 322.663 409.607 325.94C410.71 327.143 412.048 329.986 413.72 331.39C413.787 325.338 413.853 319.319 413.954 313.299C413.619 312.965 413.185 312.664 412.65 312.296ZM431.744 325.906C434.753 322.629 438.265 320.054 441.742 317.279C447.728 312.497 450.938 306.712 455.286 300.525C466.053 285.21 487.789 288.487 504.108 288.086C510.796 287.918 517.417 287.25 523.637 285.477C526.68 284.608 529.489 285.009 532.064 283.237C533.936 281.966 535.876 280.06 537.581 278.522C541.828 274.743 545.908 269.961 548.148 264.811C552.228 255.548 551.325 245.817 557.144 237.424C559.852 233.511 562.695 231.338 566.908 229.398C568.848 228.495 575.001 226.422 576.439 224.616C571.189 224.382 564.501 226.623 560.321 229.666C549.82 237.257 547.48 249.128 542.196 260.364C538.685 267.787 532.064 269.727 525.51 273.807C521.697 276.181 517.016 278.455 512.702 279.826C507.519 281.464 503.239 281.398 498.758 280.829C500.898 278.455 502.938 274.944 503.774 272.068C506.716 261.935 500.195 252.104 498.992 242.774C498.323 237.591 501.098 233.211 503.974 229.331C507.251 224.884 509.325 220.269 509.024 214.551C508.756 209.067 506.884 203.415 507.72 197.764C508.656 191.444 515.578 190.641 517.451 185.726C506.181 188.334 504.376 194.654 504.376 204.82C504.376 213.815 503.74 221.674 496.316 227.693C493.708 225.687 492.705 224.015 489.261 223.613C485.917 223.245 481.569 223.346 478.593 224.683C474.447 226.556 466.722 234.983 470.033 239.698C469.899 230.669 479.229 225.151 487.656 227.292C493.875 228.863 492.371 234.381 492.672 239.664C492.973 244.58 495.079 248.192 497.052 252.405C500.296 259.327 498.356 278.321 487.555 278.355L487.221 278.689C486.92 278.99 486.652 279.291 486.385 279.625C485.114 279.726 483.843 279.926 482.573 280.227C474.514 282.234 464.883 281.632 457.225 284.842C452.41 286.848 448.765 290.025 445.555 294.038C444.585 295.242 443.381 296.345 442.445 297.75C440.572 300.525 438.432 302.398 436.392 305.107C434.185 308.016 431.677 310.189 428.701 312.263H428.667C428.6 318.349 428.5 324.435 428.366 330.521C429.704 329.05 430.807 326.909 431.744 325.906ZM576.74 224.015C576.706 224.249 576.572 224.449 576.439 224.616H576.74V224.015Z" fill="black"/>
<path fill-rule="evenodd" clip-rule="evenodd" d="M406.095 256.217C401.514 250.934 393.02 245.884 385.931 247.857C378.608 249.897 374.796 259.093 376.501 266.283C377.504 270.463 382.687 277.385 386.901 278.221C385.831 276.181 382.62 275.612 381.383 272.937C380.313 270.663 380.012 267.286 379.812 264.744C379.243 257.588 382.821 253.074 390.345 254.211C396.297 255.114 403.654 259.728 406.396 265.213C409.372 271.198 409.506 278.221 413.72 283.538C413.92 283.805 414.121 284.039 414.322 284.273L414.489 271.165C411.178 267.654 408.403 258.892 406.095 256.217ZM433.616 265.246C436.359 259.762 443.715 255.147 449.668 254.244C457.192 253.107 460.77 257.588 460.201 264.778C460.001 267.319 459.7 270.697 458.63 272.971C457.392 275.646 454.182 276.214 453.112 278.254C457.359 277.418 462.509 270.496 463.512 266.316C465.217 259.126 461.439 249.964 454.082 247.891C446.959 245.884 438.465 250.967 433.917 256.251C432.279 258.157 430.373 263.173 428.233 267.152C428.433 271.265 428.6 275.412 428.701 279.558C430.741 275.01 431.343 269.827 433.616 265.246ZM430.841 404.891C431.343 404.122 431.844 403.353 432.379 402.684C435.723 398.237 439.201 395.261 444.217 392.853C449.701 390.211 454.249 386.433 460.703 387.068C477.623 388.773 468.795 406.229 463.077 414.689C459.198 420.408 455.486 424.889 459.165 432.045C461.271 436.191 468.963 442.277 473.778 438.967C458.897 435.89 461.439 420.876 469.598 411.546C473.109 407.533 477.757 402.417 477.289 396.665C477.088 394.257 476.319 391.315 475.082 388.573C481.101 390.713 486.619 394.224 491.434 399.039C498.49 406.095 503.84 415.893 505.579 425.624C506.783 432.279 509.592 443.916 505.078 449.835C496.316 461.372 479.53 446.223 489.461 436.258C488.09 436.526 486.519 438.967 485.114 439.067C480.332 445.956 487.187 454.316 493.474 457.258C497.253 459.031 503.874 458.73 507.051 455.72C508.99 453.881 508.723 449.868 510.729 448.865C511.13 452.644 515.043 458.161 517.584 461.171C523.269 467.926 528.486 469.397 537.381 469.297C542.531 469.23 547.48 468.762 549.252 463.411C550.021 461.104 550.891 457.058 546.644 451.607C548.516 459.332 544.136 464.682 534.338 463.512C516.748 461.372 512.97 442.612 511.799 428.299C510.997 418.368 508.455 408.269 502.001 400.377C497.788 395.261 494.277 392.084 489.027 388.706C483.409 385.062 478.058 380.614 471.203 379.845C471.002 379.811 470.802 379.811 470.601 379.811C466.555 378.039 462.709 377.838 457.994 378.307C451.942 378.909 444.785 377.604 438.967 380.28C434.854 382.186 432.613 385.898 430.339 389.576C430.707 394.592 430.941 399.708 430.841 404.891Z" fill="black"/>
<path fill-rule="evenodd" clip-rule="evenodd" d="M648.134 305.24C631.213 298.586 607.438 292.5 591.019 303.568C576.138 313.6 572.426 331.524 555.438 338.948C549.988 341.322 544.269 342.459 538.351 342.76C537.949 340.252 539.655 337.711 540.959 335.269C545.206 327.411 546.042 318.583 546.443 309.721C546.844 300.659 545.005 289.39 550.088 281.431C553.833 275.579 564.099 273.439 570.353 276.649C576.673 279.893 575.302 285.845 573.83 290.527C580.585 286.949 575.034 272.235 568.38 271.165C564.099 270.463 556.91 271.065 552.93 273.372C550.489 274.776 548.416 276.716 546.777 279.023C542.096 285.544 543.601 292.132 542.564 299.656C539.855 297.482 538.417 295.743 534.438 295.911C530.726 296.078 527.616 298.753 525.877 301.863C523.503 306.177 522.734 318.115 530.559 315.072C521.664 314.436 529.422 292.834 538.116 301.562C540.023 303.468 540.223 305.909 540.39 308.417C540.691 314.537 540.257 320.69 539.053 326.709C537.882 332.394 534.037 338.279 529.623 342.693C513.07 341.623 495.781 335.972 480.466 334.634C479.162 334.534 477.824 334.433 476.52 334.367C476.754 334.032 477.022 333.664 477.256 333.296C480.432 328.448 480.098 323.064 484.378 319.051C488.224 315.473 491.234 311.895 497.219 312.53C503.874 313.266 503.907 318.382 505.212 323.499C508.021 321.659 505.68 316.409 504.543 314.169C501.767 308.785 499.493 308.384 492.872 309.052C488.692 309.454 485.281 311.126 482.506 314.336C480.366 316.811 479.864 319.753 477.791 322.161C475.751 317.948 473.644 314.135 467.826 315.272C465.652 315.707 462.776 316.911 462.074 319.118C461.439 321.158 462.609 323.766 464.783 323.866C462.208 321.459 463.545 317.58 467.09 317.245C470.835 316.877 472.775 320.957 473.076 324.167C473.544 329.351 470.501 333.096 465.685 334.467C452.644 335.336 439.703 339.316 431.409 349.114C429.938 350.852 428.701 352.524 427.631 354.196C427.597 351.622 427.631 349.047 427.764 346.438C427.999 341.155 428.199 335.838 428.333 330.521C428.5 324.435 428.567 318.349 428.634 312.263C428.701 304.705 428.734 297.148 428.734 289.624C428.701 282.1 428.5 274.576 428.132 267.085C427.698 258.625 427.129 250.198 426.427 241.771C425.892 235.25 425.323 228.763 424.755 222.242L424.454 218.865C423.417 206.86 422.414 194.855 421.779 182.783C421.444 185.826 420.976 188.434 420.374 190.073C420.207 189.404 420.04 188.769 419.839 188.1C419.639 188.836 419.438 189.571 419.237 190.34C418.568 188.501 418.067 185.525 417.732 182.047C417.131 182.181 416.529 182.382 415.96 182.649L414.99 184.622C414.99 196.059 414.924 207.462 414.857 218.865L414.823 221.272C414.79 228.362 414.723 235.451 414.656 242.54C414.522 256.451 414.355 270.362 414.188 284.273L413.82 313.199C413.753 319.218 413.653 325.271 413.586 331.29C413.486 339.65 413.385 348.077 413.318 356.47C412.382 355.133 411.412 353.829 410.342 352.558C403.019 343.897 392.084 339.784 380.614 338.346C376.534 336.875 372.388 335.604 368.208 334.433C363.359 333.096 360.283 329.317 360.751 324.134C361.052 320.924 362.991 316.877 366.736 317.212C370.315 317.546 371.619 321.425 369.044 323.833C371.217 323.733 372.421 321.124 371.752 319.084C371.05 316.877 368.174 315.674 366.001 315.239C360.182 314.102 358.042 317.881 356.036 322.128C353.962 319.753 353.461 316.811 351.321 314.303C348.545 311.092 345.134 309.454 340.954 309.019C334.367 308.35 332.059 308.752 329.317 314.135C328.18 316.376 325.806 321.592 328.648 323.465C329.952 318.349 329.986 313.199 336.64 312.497C342.593 311.861 345.602 315.44 349.481 319.018C353.795 323.03 353.461 328.414 356.604 333.263C357.841 335.136 359.179 336.774 360.684 338.145C344.298 339.684 325.739 346.004 308.216 346.271L308.25 346.137C302.298 341.723 296.312 333.999 294.807 326.642C293.603 320.623 293.168 314.47 293.503 308.35C293.637 305.842 293.871 303.401 295.777 301.495C304.505 292.801 312.229 314.369 303.368 315.005C311.226 318.048 310.457 306.076 308.049 301.796C306.31 298.686 303.2 296.011 299.489 295.844C295.509 295.643 294.071 297.415 291.363 299.589C290.326 292.065 291.797 285.444 287.149 278.956C285.544 276.649 283.437 274.71 280.996 273.305C277.017 271.031 269.827 270.396 265.547 271.098C258.892 272.202 253.341 286.915 260.096 290.46C258.592 285.778 257.22 279.826 263.541 276.582C269.794 273.372 280.06 275.512 283.805 281.364C288.888 289.323 287.016 300.592 287.45 309.654C287.852 318.516 288.721 327.344 292.934 335.203C294.673 338.413 297.081 341.723 294.506 345C291.731 344.399 289.022 343.529 286.38 342.392C269.393 334.968 265.681 317.045 250.8 307.013C234.381 295.911 210.605 302.03 193.684 308.685C187.899 310.29 188.434 310.791 195.29 310.791H196.126C200.54 307.882 206.158 307.046 210.906 305.976C219.099 304.07 229.8 305.675 237.591 307.715C249.63 310.858 255.114 323.131 262.136 332.093C285.009 361.42 322.362 351.22 355.166 349.816C352.257 350.251 349.481 351.02 346.94 352.19C341.456 354.731 336.373 356.036 330.488 357.139C324.903 358.209 318.182 358.744 313.266 361.453C307.815 364.496 302.766 368.442 297.449 371.619C292.533 374.528 286.38 377.504 281.933 380.882C282.066 380.648 282.167 380.38 282.234 380.112L281.531 381.183C280.829 381.718 280.16 382.353 279.592 383.022L279.625 382.921C279.592 382.988 279.558 383.055 279.525 383.089C279.023 383.657 278.555 384.259 278.12 384.894C275.546 386.834 272.402 388.439 270.53 388.974C265.179 390.546 258.993 390.68 254.579 387.001C251.402 384.359 247.556 379.042 250.399 374.963C253.375 370.716 256.15 376.501 254.01 379.711C258.625 377.571 257.488 368.709 251.435 370.014C245.951 371.184 249.396 380.213 242.875 378.574C235.953 376.835 229.666 371.084 221.908 374.127C218.464 375.498 216.491 379.21 217.795 382.888C218.43 384.627 220.303 385.63 222.108 386.399C223.413 386.968 224.817 387.101 226.222 387.235C226.656 384.493 215.086 381.383 222.811 378.173C228.496 375.799 236.454 379.042 240.768 382.821C245.65 387.135 247.757 392.619 254.813 394.291C259.026 395.294 263.908 395.194 268.256 394.525C266.283 396.364 264.377 398.237 262.638 400.544C258.759 405.728 256.619 411.345 251.937 415.994C247.055 420.776 241.236 422.882 234.648 424.688C227.459 426.661 213.381 429.971 211.475 419.906C210.705 415.826 214.116 410.008 217.694 415.124C217.962 411.111 212.043 411.011 210.037 413.051C206.693 416.462 207.495 420.006 209.736 423.752C211.742 427.129 213.815 429.503 217.694 430.272C220.069 430.741 225.954 429.938 227.96 431.71C227.626 431.944 227.359 432.245 227.124 432.546C225.82 434.319 223.847 438.432 223.279 440.739C221.741 446.658 225.753 453.781 230.268 457.392C234.047 460.402 245.349 459.666 246.954 454.583C248.459 449.801 242.975 444.886 238.494 447.126C238.628 447.394 238.728 447.628 238.828 447.929C242.373 447.528 245.751 448.965 243.41 452.61C241.303 455.854 237.792 455.319 234.782 453.58C231.07 451.44 228.462 449.701 228.429 445.254C228.362 439.468 229.465 436.124 232.542 432.212C238.494 430.239 248.961 425.256 252.138 422.849C257.99 418.468 263.307 412.884 267.687 407.199C268.122 406.597 268.557 405.995 268.924 405.393C268.088 411.68 271.265 418 276.482 421.612C281.331 424.956 292.533 424.554 297.248 421.043C299.756 419.17 301.562 415.559 301.328 412.382C301.194 410.309 300.057 405.56 297.348 406.396C303.602 412.85 296.579 419.839 289.022 419.672C283.203 419.572 278.221 415.994 275.947 410.81C274.375 407.266 273.171 403.955 274.609 400.243C276.448 395.461 279.391 391.683 283.136 388.205C285.578 385.931 287.216 382.52 290.059 380.681C293.503 378.44 297.683 378.039 301.06 375.565C302.966 374.16 305.006 372.789 307.046 371.518C310.758 369.211 313.968 368.542 318.349 367.539C322.93 366.502 326.608 363.927 331.123 363.058C338.179 361.687 345.569 361.553 352.424 359.212C354.464 358.51 356.337 357.407 358.477 357.072C370.682 355.3 383.958 356.437 396.331 356.437L397.167 355.902C403.52 358.677 409.105 362.49 413.252 367.74C413.185 375.832 413.118 383.925 413.084 392.017C413.051 395.027 413.051 398.07 413.051 401.113L429.035 405.36C428.132 414.923 428.968 426.226 429.838 436.593C430.038 426.761 430.306 416.93 430.674 407.065C430.707 406.263 430.707 405.493 430.741 404.691C430.808 399.575 430.64 394.425 430.239 389.308C429.637 381.082 428.701 372.956 428.099 364.73C431.108 360.784 434.921 357.607 439.268 355.066C439.168 355.3 439.101 355.534 439.034 355.768L439.97 356.404C452.343 356.404 465.619 355.233 477.824 357.039C479.964 357.34 481.837 358.477 483.877 359.179C490.732 361.553 498.122 361.654 505.178 363.025C509.692 363.894 513.371 366.469 517.952 367.506C522.333 368.509 525.543 369.178 529.255 371.485C531.295 372.756 533.335 374.127 535.241 375.531C538.618 378.006 542.765 378.407 546.242 380.648C549.051 382.487 550.69 385.898 553.131 388.172C556.876 391.649 559.852 395.428 561.658 400.21C563.096 403.922 561.892 407.199 560.321 410.777C558.013 415.994 553.031 419.538 547.246 419.639C539.688 419.772 532.666 412.783 538.919 406.363C536.21 405.527 535.073 410.275 534.94 412.349C534.706 415.525 536.511 419.137 539.019 421.01C543.734 424.487 554.937 424.889 559.786 421.578C565.002 417.967 568.179 411.646 567.343 405.36C567.711 405.962 568.146 406.564 568.58 407.165C572.994 412.85 578.311 418.435 584.163 422.815C587.374 425.223 597.84 430.206 603.793 432.179C606.869 436.091 607.973 439.435 607.906 445.22C607.872 449.668 605.264 451.407 601.552 453.547C598.543 455.286 594.998 455.854 592.925 452.577C590.584 448.932 593.928 447.494 597.506 447.895C597.606 447.594 597.707 447.327 597.84 447.093C593.393 444.852 587.909 449.768 589.38 454.55C590.952 459.666 602.288 460.402 606.067 457.359C610.614 453.747 614.594 446.625 613.056 440.706C612.454 438.432 610.481 434.285 609.21 432.513C608.976 432.212 608.675 431.911 608.374 431.677C610.38 429.905 616.266 430.707 618.64 430.239C622.519 429.47 624.592 427.096 626.599 423.718C628.806 419.973 629.608 416.428 626.298 413.017C624.291 410.978 618.372 411.111 618.64 415.091C622.252 409.941 625.629 415.76 624.893 419.873C622.987 429.938 608.909 426.628 601.719 424.655C595.132 422.849 589.28 420.742 584.431 415.96C579.749 411.312 577.609 405.727 573.73 400.511C571.991 398.203 570.085 396.297 568.112 394.492C572.459 395.127 577.342 395.261 581.555 394.258C588.644 392.586 590.718 387.101 595.6 382.788C599.914 378.975 607.872 375.732 613.557 378.14C621.248 381.35 609.712 384.46 610.146 387.202C611.584 387.068 612.955 386.934 614.259 386.366C616.065 385.597 617.971 384.593 618.573 382.855C619.911 379.143 617.938 375.431 614.46 374.093C606.668 371.05 600.415 376.802 593.493 378.541C586.972 380.179 590.417 371.151 584.932 369.98C578.88 368.676 577.743 377.538 582.358 379.678C580.217 376.468 582.96 370.649 585.936 374.929C588.778 379.009 584.932 384.326 581.756 386.968C577.342 390.613 571.155 390.479 565.805 388.941C563.932 388.406 560.789 386.8 558.214 384.861C557.779 384.226 557.311 383.624 556.809 383.022C556.776 382.955 556.709 382.888 556.709 382.855L556.743 382.955C556.208 382.32 555.606 381.751 554.937 381.249L554.803 381.149L554.101 380.079C554.168 380.347 554.301 380.581 554.402 380.848C549.954 377.471 543.801 374.495 538.886 371.585C533.569 368.408 528.519 364.463 523.102 361.42C518.22 358.677 511.465 358.142 505.88 357.106C499.995 356.002 494.912 354.698 489.428 352.157C479.563 347.575 466.321 349.582 455.486 349.582C454.684 349.582 453.714 349.582 452.644 349.615C459.8 347.575 467.491 346.572 475.049 346.238C491.133 345.502 509.024 348.612 526.145 349.08C528.319 349.816 530.994 349.749 533.502 349.08C551.091 348.612 567.41 344.231 579.649 328.581C586.671 319.586 592.122 307.347 604.194 304.204C611.985 302.164 622.686 300.559 630.879 302.465C635.628 303.568 641.279 304.371 645.693 307.28H646.529C653.418 307.347 653.919 306.845 648.134 305.24Z" fill="black"/>
<path fill-rule="evenodd" clip-rule="evenodd" d="M429.169 405.527L413.185 401.28C413.185 398.237 413.185 395.227 413.218 392.184C410.175 387.77 407.968 382.587 402.852 380.213C397.067 377.538 389.877 378.842 383.824 378.24C379.076 377.772 375.264 377.972 371.217 379.745C371.017 379.778 370.816 379.745 370.616 379.778C363.76 380.547 358.41 384.995 352.792 388.64C347.542 392.017 344.031 395.194 339.851 400.31C333.397 408.202 330.855 418.301 330.053 428.233C328.882 442.545 325.104 461.305 307.514 463.445C297.716 464.615 293.336 459.265 295.208 451.54C290.961 457.024 291.831 461.037 292.6 463.345C294.372 468.662 299.321 469.163 304.471 469.23C313.366 469.33 318.583 467.859 324.268 461.104C326.809 458.061 330.755 452.577 331.123 448.798C333.129 449.835 332.862 453.814 334.801 455.653C337.978 458.663 344.599 458.964 348.378 457.192C354.665 454.249 361.52 445.889 356.738 439C355.3 438.9 353.762 436.425 352.391 436.191C362.322 446.156 345.536 461.305 336.774 449.768C332.26 443.816 335.069 432.212 336.273 425.557C338.012 415.793 343.395 405.995 350.418 398.973C354.665 394.692 359.748 391.315 365.332 389.074C363.861 392.05 362.924 395.428 362.69 398.103C362.222 403.855 366.87 408.971 370.381 412.984C378.541 422.314 381.049 437.362 366.201 440.405C371.017 443.715 378.708 437.629 380.815 433.483C384.46 426.36 380.781 421.879 376.902 416.127C371.184 407.667 362.356 390.211 379.276 388.506C385.697 387.87 390.278 391.649 395.762 394.291C400.778 396.732 404.256 399.675 407.6 404.122C408.536 405.393 409.473 406.798 410.342 408.302C412.817 419.07 412.85 429.637 412.85 441.776C412.85 471.571 409.707 501.767 407.165 531.362C403.654 572.225 404.557 613.925 401.447 654.789C400.879 661.744 400.544 668.7 400.444 675.689C399.04 679.033 397.501 682.31 395.896 685.553C389.074 699.398 384.426 715.649 370.95 724.678C361.486 730.998 349.515 730.798 340.285 737.619C337.376 739.76 335.035 743.037 332.026 744.976C326.876 748.287 319.553 750.661 314.002 752.835C301.896 757.617 265.346 761.629 273.84 781.994C276.114 779.888 276.081 776.677 277.886 774.303C281.03 770.19 286.113 768.986 290.761 768.518C295.61 768.05 300.759 768.117 305.441 766.98C309.454 766.01 312.831 763.469 316.811 762.432C336.34 757.215 329.317 775.474 326.909 785.606C324.502 785.974 321.659 793.23 321.158 795.671C319.553 796.641 317.58 797.979 316.242 799.049C326.575 797.778 331.457 789.184 338.078 781.626C342.325 776.811 343.429 768.886 348.913 764.84C355.935 759.623 371.719 758.051 380.48 759.155C385.563 768.184 387.904 773.367 380.046 782.128C386.6 780.556 388.105 778.416 391.148 772.063C393.89 766.311 396.665 761.195 403.119 758.921C411.546 755.945 416.596 758.319 421.779 764.706C424.621 768.217 434.854 777.48 433.148 782.095C436.459 783.867 438.432 787.211 442.11 788.582C449.969 791.491 454.784 790.221 462.208 788.615C454.784 789.953 447.494 787.077 444.284 779.419C441.375 772.531 440.84 763.402 447.628 759.054C454.249 754.808 467.692 753.671 473.109 761.328C475.35 764.505 474.514 769.622 472.072 772.497C475.082 773.501 475.717 784.87 478.794 783.934C479.663 778.283 488.558 762.833 494.109 762.465C500.831 762.031 506.148 768.953 509.291 774.47C514.107 782.931 512.267 796.507 524.239 797.945C519.256 796.808 519.591 786.475 519.424 782.73C518.621 765.642 527.048 764.271 542.531 764.171C552.496 764.104 557.01 762.332 562.929 769.989C563.999 771.394 564.267 772.865 565.872 774.47C570.486 779.118 578.646 780.322 584.799 781.125C579.248 780.222 572.526 766.746 569.115 762.332C563.531 755.008 543.801 755.777 533.435 744.073C527.583 737.452 526.647 739.392 517.216 738.89C512.067 738.623 508.79 738.556 506.783 738.589C505.747 737.92 503.038 736.783 497.286 734.944C489.729 732.537 488.793 733.105 483.141 728.189C480.332 725.748 478.326 723.508 475.918 720.699C473.243 717.555 470.869 714.044 467.993 711.068C465.318 708.293 460.669 706.186 458.496 703.176C454.751 697.96 452.978 687.56 450.604 681.139C448.096 674.318 445.922 667.763 444.852 660.707C444.351 657.497 443.381 654.521 442.244 651.645C441.609 638.938 440.94 626.197 439.97 613.657C438.8 598.71 436.125 582.926 436.994 568.313C438.432 544.403 432.245 522.567 431.978 498.59C431.777 480.265 432.078 462.007 430.54 443.849C430.339 441.542 430.139 439.167 429.938 436.726C429.102 426.393 428.266 415.057 429.169 405.527Z" fill="black"/>
<path fill-rule="evenodd" clip-rule="evenodd" d="M524.205 797.979C524.607 798.079 525.041 798.112 525.443 798.079C525.041 798.079 524.607 798.045 524.205 797.979Z" fill="black"/>
</svg>
