<?xml version="1.0" encoding="utf-8"?>
<!-- Generator: Adobe Illustrator 25.2.1, SVG Export Plug-In . SVG Version: 6.00 Build 0)  -->
<svg version="1.1" id="Layer_1" xmlns="http://www.w3.org/2000/svg" xmlns:xlink="http://www.w3.org/1999/xlink" x="0px" y="0px"
	 viewBox="0 0 150 150" style="enable-background:new 0 0 150 150;" xml:space="preserve">
<style type="text/css">
	.st0{fill-rule:evenodd;clip-rule:evenodd;fill:#FFFFFF;}
</style>
<path class="st0" d="M34,48.8l4.2-0.7L34,47.5l0.6-1.5l-1.2,0.8l-0.7-4.1l-0.6,4.2L30.9,46l0.6,1.5l-4.2,0.7l4.2,0.6l-0.6,1.5
	l1.2-0.8l0.7,4.2l0.6-4.2l1.2,0.8L34,48.8z M50.1,30.6l4.2-0.7l-4.2-0.6l0.6-1.5l-1.2,0.8l-0.7-4.1l-0.6,4.2L47,27.8l0.6,1.5
	L43.4,30l4.2,0.6L47,32l1.2-0.8l0.7,4.2l0.6-4.2l1.2,0.8L50.1,30.6z M62.8,12.7L67,12l-4.2-0.6l0.6-1.5l-1.2,0.8l-0.7-4.1L61,10.8
	L59.7,10l0.6,1.5l-4.2,0.7l4.2,0.6l-0.6,1.5l1.2-0.8l0.7,4.2l0.6-4.2l1.2,0.8L62.8,12.7z M89.2,12.7l4.2-0.7l-4.2-0.6l0.6-1.5
	l-1.2,0.8L88,6.6l-0.6,4.2L86.1,10l0.6,1.5l-4.2,0.7l4.2,0.6l-0.6,1.5l1.2-0.8l0.7,4.2l0.6-4.2l1.2,0.8L89.2,12.7z M102.1,30.6
	l4.2-0.7l-4.2-0.6l0.6-1.5l-1.2,0.8l-0.7-4.1l-0.6,4.2L99,27.8l0.6,1.5L95.4,30l4.2,0.6L99,32.1l1.2-0.8l0.7,4.2l0.6-4.2l1.2,0.8
	L102.1,30.6z M118.5,48.8l4.2-0.7l-4.2-0.6l0.6-1.5l-1.2,0.8l-0.7-4.1l-0.6,4.2l-1.3-0.9l0.6,1.5l-4.2,0.7l4.2,0.6l-0.6,1.5l1.2-0.8
	l0.7,4.2l0.6-4.2l1.2,0.8L118.5,48.8z M74.7,32.8c0.1,0,0.2-0.1,0.3-0.1c0.1,0.6,0.2,1.2,0.3,1.5c0-0.1,0.1-0.3,0.1-0.4
	c0,0.1,0.1,0.2,0.1,0.4c0.1-0.3,0.2-0.8,0.3-1.3c0.1,2.2,0.3,4.3,0.5,6.5h0.1v-8.2c0.2-0.5,0.4-0.9,0.7-1.4c0.9-1.6,2.1-3.1,3-4.7
	c0.7-1.5,1.2-2.7,1.3-4.3c0.1-0.9,0.3-4,1.7-3.9v-0.1c-0.3-0.1-0.6,0-0.8,0.1c-1,0.6-1.3,2.7-1.5,3.8c-0.3,1.7-1.2,2.9-2,4.4
	c-0.8,1.4-2.4,2.4-3.1,3.7v0c-0.8-1.4-2.3-2.4-3.2-3.8c-0.9-1.4-1.7-2.6-2-4.3c-0.2-1.1-0.5-3.2-1.5-3.8c-0.2-0.1-0.5-0.2-0.8-0.1
	v0.1c1.4-0.1,1.6,3,1.7,3.9c0.2,1.6,0.6,2.8,1.3,4.3c0.8,1.6,2.1,3.1,3,4.7c0.2,0.4,0.4,0.8,0.6,1.1c0.1,1.9,0.1,8.6,0.1,8.6h0
	c0-2,0-4.1,0-6.1L74.7,32.8z M73.8,38.9c-0.8-0.9-1.6-1.9-2.4-2.8c-2-2-6.1-2.7-7.6-3c-1.5-0.3-2.7-2-1.2-3.5c1-1,2.9-0.4,2.8,1
	c0.1,0-0.3,1.3,0.3,0c0.1-0.7-0.4-1.3-1-1.7c-0.8-0.6-0.9-0.3-1.7-0.1c-1.1,0.3-1.7-0.1-2.3-1c-0.9-1.1-1.1-2.2-2.5-2.8
	c-1.3-0.6-2.6-0.6-4-0.6c0.8,0.5,4,0.2,5.4,2.3c0.3,0.5,0.6,1.1,0.9,1.6c0.7,1.1,0.5,2.7,0.9,4.2c0.5,1.5,2.1,1.6,3.6,1.9
	c1.9,0.4,4.1,1,5.4,2.4c0.8,0.9,1.4,1.8,2,2.9c0.5,0.9,1,3.1,1.9,3.9c0-1.3,0-2.5,0-3.8C74.2,39.4,74,39.1,73.8,38.9z M78.3,39.6
	c0.6-1,1.2-2,2-2.9c1.2-1.4,3.5-2,5.4-2.4c1.4-0.3,3.1-0.4,3.6-1.9c0.4-1.4,0.3-3.1,0.9-4.2c0.3-0.5,0.6-1.1,0.9-1.6
	c1.4-2.1,4.7-1.8,5.4-2.3c-1.4,0-2.7,0-4,0.6c-1.4,0.7-1.6,1.7-2.5,2.8c-0.6,0.9-1.2,1.2-2.3,1c-0.9-0.2-0.9-0.5-1.7,0.1
	c-0.5,0.4-1.1,1-1,1.7c0.6,1.3,0.2,0,0.3,0c0-1.4,1.8-2,2.8-1c1.6,1.5,0.4,3.2-1.2,3.5c-1.5,0.3-5.6,1-7.6,3
	c-0.8,0.8-1.6,1.9-2.4,2.8c-0.3,0.3-0.5,0.7-0.8,1c0.1,1.2,0.2,2.3,0.3,3.5C77.3,42.5,77.8,40.5,78.3,39.6z M47.5,40.3L47.5,40.3
	c0,0,0-0.1,0-0.1V40.3z M74,56c-0.5-0.4-1-0.8-1.4-1.3c-0.4-0.5-0.8-0.8-1.1-1.3c-0.2-0.3-0.4-0.5-0.6-0.7c-0.6-0.7-1.2-1.3-2.1-1.7
	c-1.4-0.6-3.1-0.5-4.5-0.8c-0.2-0.1-0.5-0.1-0.7-0.1c0-0.1-0.1-0.1-0.2-0.2L63.5,50c-1.9,0-2.3-3.4-1.7-4.7c0.4-0.8,0.7-1.4,0.8-2.3
	c0.1-0.9-0.2-1.9,0.9-2.2c1.5-0.4,3.2,0.6,3.2,2.2c0.6-0.8-0.8-2.4-1.5-2.7c-0.5-0.2-1.3-0.3-1.9-0.2c-0.6,0.1-0.8,0.4-1.3,0.7
	c-1.3-1.1-1.4-2.5-1.4-4.1c0-1.8-0.3-3-2.3-3.4c0.3,0.9,1.6,1,1.7,2.2c0.2,1-0.2,2-0.2,3c-0.1,1,0.3,1.9,0.9,2.7
	c0.5,0.7,1,1.5,0.9,2.4c-0.2,1.7-1.4,3.4-0.9,5.3c0.2,0.5,0.5,1.1,0.9,1.6c-0.8,0.1-1.6,0.1-2.5-0.2c-0.8-0.2-1.6-0.6-2.3-1.1
	c-1.2-0.7-2.4-1.1-3-2.4c-0.9-2-1.4-4.1-3.3-5.5c-0.8-0.5-2-0.9-2.9-0.9c0.3,0.3,1.4,0.7,1.7,0.9c0.8,0.3,1.3,0.7,1.8,1.4
	c1,1.5,0.9,3.3,1.6,4.9c0.4,0.9,1.1,1.8,1.9,2.5c0.3,0.3,0.7,0.6,1,0.8c0.5,0.3,1,0.2,1.5,0.4c1.1,0.3,2.3,0.4,3.5,0.5
	c2.9,0.1,6.8-0.5,8.8,2.2c0.8,1.1,1.4,2.2,2.4,3c0.6,0.5,1.2,1,1.8,1.5c0.2,0.2,0.4,0.7,0.7,1c0-1.1,0-2.2,0-3.2
	C74.2,56.2,74.1,56.1,74,56z M77.5,58.5c0.5-0.6,1.2-1.1,1.8-1.5c1.1-0.9,1.7-1.9,2.4-3c1.9-2.7,5.8-2.2,8.8-2.2
	c1.2,0,2.4-0.1,3.5-0.5c0.5-0.2,1-0.1,1.5-0.4c0.3-0.2,0.7-0.6,1-0.8c0.8-0.7,1.5-1.5,1.9-2.5c0.7-1.7,0.6-3.4,1.6-4.9
	c0.5-0.7,1-1.1,1.8-1.4c0.3-0.2,1.5-0.5,1.7-0.9c-0.9,0-2.1,0.4-2.9,0.9c-1.9,1.4-2.3,3.5-3.3,5.5c-0.6,1.3-1.8,1.7-3,2.4
	c-0.7,0.4-1.5,0.8-2.3,1.1c-0.9,0.3-1.7,0.3-2.5,0.2c0.4-0.4,0.8-1.1,0.9-1.6c0.5-1.8-0.6-3.6-0.9-5.3c-0.1-0.9,0.4-1.7,0.9-2.4
	c0.6-0.8,1-1.6,0.9-2.7c0-1-0.4-2-0.2-3c0.2-1.1,1.4-1.3,1.7-2.2c-2,0.5-2.3,1.6-2.3,3.4c0,1.6-0.1,3-1.4,4.1
	c-0.5-0.4-0.6-0.7-1.3-0.7c-0.6-0.1-1.4,0-1.9,0.2c-0.7,0.3-2.1,1.8-1.5,2.7c0-1.6,1.7-2.6,3.2-2.2c1.1,0.3,0.8,1.3,0.9,2.2
	c0.1,0.9,0.4,1.5,0.8,2.3c0.6,1.2,0.2,4.7-1.7,4.7L87.4,50c-0.1,0.1-0.1,0.1-0.1,0.2c-0.2,0-0.5,0.1-0.7,0.1
	c-1.4,0.4-3.2,0.3-4.5,0.8c-0.9,0.4-1.5,0.9-2.1,1.6c-0.2,0.2-0.4,0.4-0.6,0.7c-0.3,0.5-0.7,0.8-1.1,1.3c-0.4,0.5-0.8,0.9-1.4,1.3h0
	c0,1.1,0,2.2-0.1,3.3C77.1,59,77.3,58.7,77.5,58.5z M103.5,40.2c0,0,0,0.1-0.1,0.1h0.1V40.2z"/>
<path class="st0" d="M72.9,46c-0.8-0.9-2.3-1.9-3.6-1.5c-1.3,0.4-2,2-1.7,3.3c0.2,0.8,1.1,2,1.9,2.1c-0.2-0.4-0.8-0.5-1-0.9
	c-0.2-0.4-0.2-1-0.3-1.5c-0.1-1.3,0.5-2.1,1.9-1.9c1.1,0.2,2.4,1,2.9,2c0.5,1.1,0.6,2.3,1.3,3.3c0,0,0.1,0.1,0.1,0.1l0-2.4
	C73.8,48,73.3,46.5,72.9,46z M77.8,47.6c0.5-1,1.8-1.8,2.9-2c1.3-0.2,2,0.6,1.9,1.9c0,0.5-0.1,1.1-0.3,1.5c-0.2,0.5-0.8,0.6-1,0.9
	c0.8-0.1,1.7-1.4,1.9-2.1c0.3-1.3-0.4-2.9-1.7-3.3c-1.3-0.4-2.8,0.6-3.6,1.5c-0.3,0.3-0.6,1.2-1,2c0,0.7,0.1,1.5,0.1,2.2
	C77.3,49.3,77.4,48.4,77.8,47.6z M77.3,72.6c0.1-0.1,0.2-0.3,0.3-0.4c0.6-0.8,1.2-1.3,2.1-1.8c1-0.5,1.8-1.2,3-1
	c3,0.3,1.5,3.4,0.4,5c-0.7,1-1.4,1.8-0.7,3.1c0.4,0.7,1.8,1.8,2.6,1.2c-2.7-0.6-2.2-3.2-0.8-4.9c0.6-0.7,1.5-1.6,1.4-2.7
	c0-0.4-0.2-1-0.4-1.5c1.1,0.4,2.1,1,2.9,1.9c1.3,1.3,2.2,3,2.5,4.8c0.2,1.2,0.7,3.3-0.1,4.3c-1.6,2.1-4.6-0.6-2.8-2.4
	c-0.2,0-0.5,0.5-0.8,0.5c-0.9,1.2,0.4,2.7,1.5,3.3c0.7,0.3,1.9,0.3,2.4-0.3c0.3-0.3,0.3-1,0.7-1.2c0.1,0.7,0.8,1.7,1.2,2.2
	c1,1.2,2,1.5,3.6,1.5c0.9,0,1.8-0.1,2.1-1.1c0.1-0.4,0.3-1.1-0.5-2.1c0.3,1.4-0.4,2.3-2.2,2.1c-3.2-0.4-3.8-3.8-4-6.3
	c-0.1-1.8-0.6-3.6-1.8-5c-0.8-0.9-1.4-1.5-2.3-2.1c-1-0.7-2-1.5-3.2-1.6c0,0-0.1,0-0.1,0c-0.7-0.3-1.4-0.4-2.3-0.3
	c-1.1,0.1-2.4-0.1-3.4,0.4c-0.7,0.3-1.1,1-1.5,1.7C77.3,70.8,77.3,71.7,77.3,72.6z"/>
<path class="st0" d="M116.3,54.8c-3-1.2-7.3-2.3-10.2-0.3c-2.7,1.8-3.3,5-6.4,6.3c-1,0.4-2,0.6-3.1,0.7c-0.1-0.5,0.2-0.9,0.5-1.3
	c0.8-1.4,0.9-3,1-4.6c0.1-1.6-0.3-3.6,0.7-5.1c0.7-1,2.5-1.4,3.6-0.9c1.1,0.6,0.9,1.6,0.6,2.5c1.2-0.6,0.2-3.3-1-3.5
	c-0.8-0.1-2.1,0-2.8,0.4c-0.4,0.3-0.8,0.6-1.1,1c-0.8,1.2-0.6,2.4-0.8,3.7c-0.5-0.4-0.7-0.7-1.5-0.7c-0.7,0-1.2,0.5-1.5,1.1
	c-0.4,0.8-0.6,2.9,0.8,2.4c-1.6-0.1-0.2-4,1.4-2.4c0.3,0.3,0.4,0.8,0.4,1.2c0.1,1.1,0,2.2-0.2,3.3c-0.2,1-0.9,2.1-1.7,2.9
	c-3-0.2-6.1-1.2-8.8-1.4c-0.2,0-0.5,0-0.7,0c0-0.1,0.1-0.1,0.1-0.2c0.6-0.9,0.5-1.8,1.3-2.6c0.7-0.6,1.2-1.3,2.3-1.2
	c1.2,0.1,1.2,1,1.4,2c0.5-0.3,0.1-1.3-0.1-1.7c-0.5-1-0.9-1-2.1-0.9c-0.8,0.1-1.4,0.4-1.9,0.9c-0.4,0.4-0.5,1-0.8,1.4
	c-0.4-0.8-0.7-1.4-1.8-1.2c-0.4,0.1-0.9,0.3-1,0.7c-0.1,0.4,0.1,0.8,0.5,0.9c-0.5-0.4-0.2-1.1,0.4-1.2c0.7-0.1,1,0.7,1.1,1.2
	c0.1,0.9-0.5,1.6-1.3,1.8c-2.3,0.2-4.7,0.9-6.2,2.6c-0.3,0.3-0.5,0.6-0.7,0.9c0-0.5,0-0.9,0-1.4c0-0.9,0.1-1.9,0.1-2.9
	c0-1.1,0-2.2,0.1-3.3c0-1.4,0-2.7,0-4.1c0-1.3,0-2.7-0.1-4c-0.1-1.5-0.2-3-0.3-4.5c-0.1-1.2-0.2-2.3-0.3-3.5l-0.1-0.6
	c-0.2-2.2-0.4-4.3-0.5-6.5c-0.1,0.5-0.1,1-0.3,1.3c0-0.1-0.1-0.2-0.1-0.4c0,0.1-0.1,0.3-0.1,0.4c-0.1-0.3-0.2-0.9-0.3-1.5
	c-0.1,0-0.2,0.1-0.3,0.1l-0.2,0.4c0,2.1,0,4.1,0,6.1l0,0.4c0,1.3,0,2.5,0,3.8c0,2.5-0.1,5-0.1,7.5l-0.1,5.2c0,1.1,0,2.2,0,3.2
	c0,1.5,0,3,0,4.5c-0.2-0.2-0.3-0.5-0.5-0.7c-1.3-1.6-3.3-2.3-5.3-2.5c-0.7-0.3-1.5-0.5-2.2-0.7c-0.9-0.2-1.4-0.9-1.3-1.8
	c0.1-0.6,0.4-1.3,1.1-1.2c0.6,0.1,0.9,0.8,0.4,1.2c0.4,0,0.6-0.5,0.5-0.9c-0.1-0.4-0.6-0.6-1-0.7c-1-0.2-1.4,0.5-1.8,1.2
	c-0.4-0.4-0.5-1-0.8-1.4c-0.5-0.6-1.1-0.9-1.9-0.9c-1.2-0.1-1.6,0-2.1,0.9c-0.2,0.4-0.6,1.3-0.1,1.7c0.2-0.9,0.2-1.8,1.4-2
	c1.1-0.1,1.6,0.5,2.3,1.2c0.8,0.7,0.7,1.7,1.3,2.6c0.2,0.3,0.5,0.6,0.7,0.9c-2.9,0.3-6.3,1.4-9.4,1.5l0,0c-1.1-0.8-2.1-2.2-2.4-3.5
	c-0.2-1.1-0.3-2.2-0.2-3.3c0-0.5,0.1-0.9,0.4-1.2c1.6-1.6,3,2.3,1.4,2.4c1.4,0.5,1.3-1.6,0.8-2.4c-0.3-0.6-0.9-1-1.5-1.1
	c-0.7,0-1,0.3-1.5,0.7c-0.2-1.4,0.1-2.5-0.8-3.7c-0.3-0.4-0.7-0.8-1.1-1c-0.7-0.4-2-0.5-2.8-0.4c-1.2,0.2-2.2,2.8-1,3.5
	c-0.3-0.8-0.5-1.9,0.6-2.5c1.1-0.6,3-0.2,3.6,0.9c0.9,1.4,0.6,3.4,0.7,5.1c0.1,1.6,0.2,3.2,1,4.6c0.3,0.6,0.7,1.2,0.3,1.8
	c-0.5-0.1-1-0.3-1.5-0.5c-3-1.3-3.7-4.5-6.4-6.3c-2.9-2-7.2-0.9-10.2,0.3c-1,0.3-0.9,0.4,0.3,0.4h0.1c0.8-0.5,1.8-0.7,2.7-0.9
	c1.5-0.3,3.4-0.1,4.8,0.3c2.2,0.6,3.1,2.8,4.4,4.4c4.1,5.3,10.8,3.4,16.7,3.2c-0.5,0.1-1,0.2-1.5,0.4c-1,0.5-1.9,0.7-3,0.9
	c-1,0.2-2.2,0.3-3.1,0.8c-1,0.5-1.9,1.3-2.8,1.8c-0.9,0.5-2,1.1-2.8,1.7c0,0,0-0.1,0.1-0.1l-0.1,0.2c-0.1,0.1-0.2,0.2-0.3,0.3l0,0
	c0,0,0,0,0,0c-0.1,0.1-0.2,0.2-0.3,0.3c-0.5,0.3-1,0.6-1.4,0.7c-1,0.3-2.1,0.3-2.9-0.4c-0.6-0.5-1.3-1.4-0.8-2.2
	c0.5-0.8,1,0.3,0.6,0.9c0.8-0.4,0.6-2-0.5-1.7c-1,0.2-0.4,1.8-1.5,1.5c-1.2-0.3-2.4-1.3-3.8-0.8c-0.6,0.2-1,0.9-0.7,1.6
	c0.1,0.3,0.5,0.5,0.8,0.6c0.2,0.1,0.5,0.1,0.7,0.2c0.1-0.5-2-1.1-0.6-1.6c1-0.4,2.4,0.2,3.2,0.8c0.9,0.8,1.3,1.8,2.5,2.1
	c0.8,0.2,1.6,0.2,2.4,0c-0.4,0.3-0.7,0.7-1,1.1c-0.7,0.9-1.1,1.9-1.9,2.8c-0.9,0.9-1.9,1.2-3.1,1.6c-1.3,0.4-3.8,0.9-4.2-0.9
	c-0.1-0.7,0.5-1.8,1.1-0.9c0-0.7-1-0.7-1.4-0.4c-0.6,0.6-0.5,1.2-0.1,1.9c0.4,0.6,0.7,1,1.4,1.2c0.4,0.1,1.5-0.1,1.8,0.3
	c-0.1,0-0.1,0.1-0.2,0.2c-0.2,0.3-0.6,1.1-0.7,1.5c-0.3,1.1,0.4,2.3,1.3,3c0.7,0.5,2.7,0.4,3-0.5c0.3-0.9-0.7-1.7-1.5-1.3
	c0,0,0,0.1,0.1,0.1c0.6-0.1,1.2,0.2,0.8,0.8c-0.4,0.6-1,0.5-1.5,0.2C41.5,81,41,80.7,41,79.9c0-1,0.2-1.6,0.7-2.3
	c1.1-0.4,2.9-1.2,3.5-1.7c1.1-0.8,2-1.8,2.8-2.8c0.1-0.1,0.2-0.2,0.2-0.3c-0.2,1.1,0.4,2.3,1.4,2.9c0.9,0.6,2.9,0.5,3.7-0.1
	c0.5-0.3,0.8-1,0.7-1.6c0-0.4-0.2-1.2-0.7-1.1c1.1,1.2-0.1,2.4-1.5,2.4c-1,0-1.9-0.7-2.3-1.6c-0.3-0.6-0.5-1.2-0.2-1.9
	c0.3-0.9,0.9-1.5,1.5-2.2c0.4-0.4,0.7-1,1.2-1.3c0.6-0.4,1.4-0.5,2-0.9c0.3-0.3,0.7-0.5,1.1-0.7c0.7-0.4,1.2-0.5,2-0.7
	c0.8-0.2,1.5-0.6,2.3-0.8c1.3-0.2,2.6-0.3,3.8-0.7c0.4-0.1,0.7-0.3,1.1-0.4c2.2-0.3,4.6-0.1,6.8-0.1l0.2-0.1
	c1.1,0.5,2.1,1.2,2.9,2.1c0,1.5,0,2.9,0,4.4c0,0.5,0,1.1,0,1.6l2.9,0.8c-0.2,1.7,0,3.7,0.1,5.6c0-1.8,0.1-3.5,0.2-5.3
	c0-0.1,0-0.3,0-0.4c0-0.9,0-1.8-0.1-2.8c-0.1-1.5-0.3-2.9-0.4-4.4c0.5-0.7,1.2-1.3,2-1.7c0,0,0,0.1,0,0.1l0.2,0.1
	c2.2,0,4.6-0.2,6.8,0.1c0.4,0.1,0.7,0.3,1.1,0.4c1.2,0.4,2.6,0.4,3.8,0.7c0.8,0.2,1.5,0.6,2.3,0.8c0.8,0.2,1.4,0.3,2,0.7
	c0.4,0.2,0.7,0.5,1.1,0.7c0.6,0.4,1.4,0.5,2,0.9c0.5,0.3,0.8,0.9,1.2,1.4c0.7,0.6,1.2,1.3,1.5,2.2c0.3,0.7,0,1.3-0.2,1.9
	c-0.4,0.9-1.3,1.6-2.3,1.6c-1.4,0-2.6-1.2-1.5-2.4C96.2,72.8,96,73.6,96,74c0,0.6,0.3,1.2,0.7,1.6c0.8,0.6,2.9,0.7,3.7,0.1
	c0.9-0.6,1.5-1.8,1.4-2.9c0.1,0.1,0.1,0.2,0.2,0.3c0.8,1,1.7,2,2.8,2.8c0.6,0.4,2.5,1.3,3.5,1.7c0.6,0.7,0.8,1.3,0.7,2.3
	c0,0.8-0.5,1.1-1.1,1.5c-0.5,0.3-1.2,0.4-1.5-0.2c-0.4-0.7,0.2-0.9,0.8-0.8c0-0.1,0-0.1,0.1-0.1c-0.8-0.4-1.8,0.5-1.5,1.3
	c0.3,0.9,2.3,1.1,3,0.5c0.8-0.6,1.5-1.9,1.3-3c-0.1-0.4-0.5-1.2-0.7-1.5c0-0.1-0.1-0.1-0.2-0.1c0.4-0.3,1.4-0.2,1.8-0.3
	c0.7-0.1,1.1-0.6,1.4-1.2c0.4-0.7,0.5-1.3-0.1-1.9c-0.4-0.4-1.4-0.3-1.4,0.4c0.6-0.9,1.3,0.1,1.1,0.9c-0.3,1.8-2.9,1.2-4.2,0.9
	c-1.2-0.3-2.2-0.7-3.1-1.6c-0.8-0.8-1.2-1.8-1.9-2.8c-0.3-0.4-0.7-0.8-1-1.1c0.8,0.1,1.7,0.1,2.4,0c1.3-0.3,1.6-1.3,2.5-2.1
	c0.8-0.7,2.2-1.3,3.2-0.8c1.4,0.6-0.7,1.1-0.6,1.6c0.3,0,0.5,0,0.7-0.2c0.3-0.1,0.7-0.3,0.8-0.6c0.2-0.7-0.1-1.3-0.7-1.6
	c-1.4-0.5-2.5,0.5-3.8,0.8c-1.2,0.3-0.6-1.3-1.5-1.5c-1.1-0.2-1.3,1.4-0.5,1.7c-0.4-0.6,0.1-1.6,0.6-0.9c0.5,0.7-0.2,1.7-0.8,2.2
	c-0.8,0.7-1.9,0.6-2.9,0.4c-0.3-0.1-0.9-0.4-1.4-0.7c-0.1-0.1-0.2-0.2-0.3-0.3c0,0,0,0,0,0l0,0c-0.1-0.1-0.2-0.2-0.3-0.3l0,0
	l-0.1-0.2c0,0,0,0.1,0.1,0.1c-0.8-0.6-1.9-1.1-2.8-1.7c-1-0.6-1.9-1.3-2.8-1.8c-0.9-0.5-2.1-0.6-3.1-0.8c-1.1-0.2-2-0.4-3-0.9
	c-1.8-0.8-4.1-0.5-6.1-0.5c-0.1,0-0.3,0-0.5,0c1.3-0.4,2.7-0.5,4-0.6c2.9-0.1,6.1,0.4,9.2,0.5c0.4,0.1,0.9,0.1,1.3,0
	c3.2-0.1,6.1-0.9,8.3-3.7c1.3-1.6,2.2-3.8,4.4-4.4c1.4-0.4,3.3-0.7,4.8-0.3c0.9,0.2,1.9,0.3,2.7,0.9h0.2
	C117.2,55.1,117.3,55.1,116.3,54.8z"/>
<path class="st0" d="M77,72.8L74.1,72c0-0.5,0-1.1,0-1.6c-0.5-0.8-0.9-1.7-1.9-2.1c-1-0.5-2.3-0.2-3.4-0.4c-0.9-0.1-1.5,0-2.3,0.3
	c0,0-0.1,0-0.1,0c-1.2,0.1-2.2,0.9-3.2,1.6c-0.9,0.6-1.6,1.2-2.3,2.1c-1.2,1.4-1.6,3.2-1.8,5c-0.2,2.6-0.9,5.9-4,6.3
	c-1.8,0.2-2.5-0.8-2.2-2.1c-0.8,1-0.6,1.7-0.5,2.1c0.3,1,1.2,1,2.1,1.1c1.6,0,2.5-0.2,3.6-1.5c0.5-0.5,1.2-1.5,1.2-2.2
	c0.4,0.2,0.3,0.9,0.7,1.2c0.6,0.5,1.8,0.6,2.4,0.3c1.1-0.5,2.4-2,1.5-3.3c-0.3,0-0.5-0.5-0.8-0.5c1.8,1.8-1.2,4.5-2.8,2.4
	c-0.8-1.1-0.3-3.1-0.1-4.3c0.3-1.8,1.3-3.5,2.5-4.8c0.8-0.8,1.7-1.4,2.7-1.8c-0.3,0.5-0.4,1.1-0.5,1.6c-0.1,1,0.8,1.9,1.4,2.7
	c1.5,1.7,1.9,4.4-0.8,4.9c0.9,0.6,2.2-0.5,2.6-1.2c0.7-1.3,0-2.1-0.7-3.1c-1-1.5-2.6-4.7,0.4-5c1.2-0.1,2,0.6,3,1
	c0.9,0.4,1.5,1,2.1,1.8c0.2,0.2,0.3,0.5,0.5,0.8c0.4,1.9,0.5,3.8,0.5,6c0,5.3-0.6,10.8-1,16.1c-0.6,7.3-0.5,14.8-1,22.1
	c-0.1,1.2-0.2,2.5-0.2,3.8c-0.3,0.6-0.5,1.2-0.8,1.8c-1.2,2.5-2.1,5.4-4.5,7c-1.7,1.1-3.8,1.1-5.5,2.3c-0.5,0.4-0.9,1-1.5,1.3
	c-0.9,0.6-2.2,1-3.2,1.4c-2.2,0.9-8.7,1.6-7.2,5.2c0.4-0.4,0.4-1,0.7-1.4c0.6-0.7,1.5-1,2.3-1c0.9-0.1,1.8-0.1,2.6-0.3
	c0.7-0.2,1.3-0.6,2-0.8c3.5-0.9,2.2,2.3,1.8,4.2c-0.4,0.1-0.9,1.4-1,1.8c-0.3,0.2-0.6,0.4-0.9,0.6c1.9-0.2,2.7-1.8,3.9-3.1
	c0.8-0.9,1-2.3,1.9-3c1.3-0.9,4.1-1.2,5.7-1c0.9,1.6,1.3,2.5-0.1,4.1c1.2-0.3,1.4-0.7,2-1.8c0.5-1,1-1.9,2.1-2.4
	c1.5-0.5,2.4-0.1,3.3,1c0.5,0.6,2.3,2.3,2,3.1c0.6,0.3,0.9,0.9,1.6,1.2c1.4,0.5,2.3,0.3,3.6,0c-1.3,0.2-2.6-0.3-3.2-1.6
	c-0.5-1.2-0.6-2.9,0.6-3.7c1.2-0.8,3.6-1,4.6,0.4c0.4,0.6,0.3,1.5-0.2,2c0.5,0.2,0.7,2.2,1.2,2.1c0.2-1,1.8-3.8,2.7-3.9
	c1.2-0.1,2.2,1.2,2.7,2.2c0.9,1.5,0.5,4,2.7,4.2c-0.9-0.2-0.8-2.1-0.9-2.7c-0.1-3.1,1.4-3.3,4.1-3.3c1.8,0,2.6-0.3,3.7,1
	c0.2,0.3,0.2,0.5,0.5,0.8c0.8,0.8,2.3,1,3.4,1.2c-1-0.2-2.2-2.6-2.8-3.4c-1-1.3-4.5-1.2-6.4-3.3c-1-1.2-1.2-0.8-2.9-0.9
	c-0.9,0-1.5-0.1-1.9-0.1c-0.2-0.1-0.7-0.3-1.7-0.7c-1.4-0.4-1.5-0.3-2.5-1.2c-0.5-0.4-0.9-0.8-1.3-1.3c-0.5-0.6-0.9-1.2-1.4-1.7
	c-0.5-0.5-1.3-0.9-1.7-1.4c-0.7-0.9-1-2.8-1.4-4c-0.4-1.2-0.8-2.4-1-3.7c-0.1-0.6-0.3-1.1-0.5-1.6c-0.1-2.3-0.2-4.6-0.4-6.8
	c-0.2-2.7-0.7-5.5-0.5-8.1c0.3-4.3-0.9-8.2-0.9-12.5c0-3.3,0-6.6-0.3-9.8c0-0.4-0.1-0.8-0.1-1.3C77,76.5,76.8,74.5,77,72.8z"/>
<path class="st0" d="M94.1,143.2c0.1,0,0.2,0,0.2,0C94.2,143.2,94.1,143.2,94.1,143.2z"/>
</svg>
